<?xml version="1.0" encoding="utf-8"?>
<!-- Generator: Adobe Illustrator 18.1.0, SVG Export Plug-In . SVG Version: 6.00 Build 0)  -->
<svg version="1.1" id="white_bg" xmlns="http://www.w3.org/2000/svg" xmlns:xlink="http://www.w3.org/1999/xlink" x="0px" y="0px"
   viewBox="0 0 475.9 167.3" enable-background="new 0 0 475.9 167.3" xml:space="preserve">
<g>
  <path fill="#1D1D1B" d="M213.2,28.2h27.2v11.2h-27.2v29.7h-11.8V0h41v11.2h-29.1V28.2z"/>
  <path fill="#1D1D1B" d="M267,70.3c-2.2,0-4.4-0.4-6.5-1.2c-2.1-0.8-3.9-1.9-5.5-3.5c-1.6-1.5-2.8-3.4-3.8-5.5
    c-1-2.2-1.4-4.7-1.4-7.5V22.3h11.8v27.1c0,3.5,0.8,6,2.4,7.6c1.6,1.6,3.9,2.3,6.9,2.3c1.5,0,2.8-0.3,4-0.9c1.2-0.6,2.1-1.3,2.9-2
    c0.9-0.8,1.7-1.7,2.4-2.9V22.3h11.9v46.8H281v-6.8c-1,1.5-2.1,2.9-3.5,4c-1.1,1-2.6,1.9-4.3,2.7C271.4,69.9,269.4,70.3,267,70.3z"
    />
  <path fill="#1D1D1B" d="M299.9,22.3h9.2V8.4h11.9v13.9H335V33h-14.1v18.9c0,1.5,0.2,2.6,0.5,3.6c0.3,0.9,0.8,1.7,1.4,2.3
    c0.6,0.6,1.2,1,2,1.2c0.7,0.2,1.5,0.3,2.3,0.3c0.7,0,1.3-0.1,1.9-0.2c0.6-0.2,1.1-0.3,1.6-0.6c0.5-0.3,1-0.6,1.5-0.9l4.3,9.7
    c-0.9,0.6-1.9,1.1-3.1,1.6c-1,0.4-2.2,0.7-3.5,1c-1.4,0.3-2.9,0.5-4.6,0.5c-2.3,0-4.4-0.4-6.4-1.2c-1.9-0.8-3.6-1.9-5-3.4
    c-1.4-1.4-2.5-3.2-3.4-5.2c-0.8-2-1.2-4.3-1.2-6.8V33h-9.2V22.3z"/>
  <path fill="#1D1D1B" d="M360.7,70.3c-2.2,0-4.4-0.4-6.5-1.2c-2.1-0.8-3.9-1.9-5.5-3.5c-1.6-1.5-2.8-3.4-3.8-5.5
    c-1-2.2-1.4-4.7-1.4-7.5V22.3h11.9v27.1c0,3.5,0.8,6,2.4,7.6c1.6,1.6,3.9,2.3,6.9,2.3c1.5,0,2.8-0.3,4-0.9c1.2-0.6,2.1-1.3,2.9-2
    c0.9-0.8,1.7-1.7,2.4-2.9V22.3h11.9v46.8h-11.1v-6.8c-1,1.5-2.1,2.9-3.5,4c-1.1,1-2.6,1.9-4.3,2.7
    C365.1,69.9,363.1,70.3,360.7,70.3z"/>
  <path fill="#1D1D1B" d="M420.5,21.1c1.1,0,2.1,0.1,3.1,0.2c1,0.2,1.8,0.4,2.6,0.5c0.9,0.3,1.7,0.5,2.5,0.7l-4.2,10.7
    c-0.4-0.1-0.9-0.3-1.5-0.5c-0.5-0.1-1.1-0.3-1.8-0.4c-0.7-0.1-1.5-0.2-2.3-0.2c-1.8,0-3.4,0.3-4.7,1c-1.3,0.7-2.4,1.4-3.2,2.2
    c-1,0.9-1.8,2-2.6,3.2v30.6h-11.8V22.3h11.3v6.8c0.9-1.4,1.9-2.8,3.1-4c1.1-1,2.4-1.9,4-2.8C416.5,21.6,418.4,21.1,420.5,21.1z"/>
  <path fill="#1D1D1B" d="M452.3,21.1c3.2,0,6.3,0.6,9.1,1.8c2.9,1.2,5.4,2.9,7.5,5c2.1,2.1,3.8,4.7,5.1,7.7c1.2,3,1.9,6.3,1.9,9.9
    c0,0.5,0,1.1,0,1.9c0,0.8,0,1.6-0.1,2.6h-34.9c0.2,1.1,0.6,2.1,1.4,3.3c0.7,1.1,1.6,2.1,2.8,3.1c1.1,0.9,2.4,1.7,3.9,2.3
    c1.5,0.6,3.2,0.9,5,0.9c2,0,3.8-0.2,5.4-0.7c1.6-0.5,2.9-1,4-1.6c1.3-0.7,2.4-1.5,3.4-2.4l5.9,8.9c-1.5,1.2-3.2,2.4-5.1,3.4
    c-1.6,0.9-3.6,1.6-5.9,2.3c-2.3,0.7-4.9,1-7.7,1c-3.6,0-6.9-0.6-9.9-1.9c-3.1-1.3-5.7-3-8-5.2c-2.3-2.2-4-4.8-5.3-7.8
    c-1.3-3-1.9-6.2-1.9-9.6c0-3.4,0.6-6.6,1.8-9.6c1.2-3,2.8-5.6,4.9-7.8c2.1-2.2,4.6-4,7.5-5.2C445.9,21.8,449,21.1,452.3,21.1z
     M464.1,41.4c-0.1-1-0.3-2-0.8-3.2c-0.5-1.1-1.2-2.2-2.2-3.1c-0.9-0.9-2.2-1.7-3.6-2.3c-1.5-0.6-3.2-0.9-5.1-0.9
    c-1.9,0-3.6,0.3-4.9,0.9c-1.4,0.6-2.6,1.4-3.5,2.3c-0.9,0.9-1.7,2-2.2,3.1c-0.5,1.1-0.8,2.2-0.8,3.3H464.1z"/>
  <path fill="#1D1D1B" d="M201.4,93.4h11.8V155h29.4v11.2h-41.3V93.4z"/>
  <path fill="#1D1D1B" d="M269.7,118.2c3.2,0,6.3,0.6,9.1,1.8c2.9,1.2,5.4,2.8,7.5,5c2.1,2.1,3.8,4.7,5.1,7.7c1.2,3,1.9,6.3,1.9,9.9
    c0,0.5,0,1.1,0,1.9c0,0.8,0,1.6-0.1,2.6h-34.9c0.2,1.1,0.7,2.1,1.4,3.3c0.7,1.1,1.6,2.1,2.8,3.1c1.1,0.9,2.4,1.7,3.9,2.3
    c1.5,0.6,3.2,0.9,5,0.9c2,0,3.8-0.2,5.4-0.7c1.6-0.5,2.9-1,4-1.6c1.2-0.7,2.4-1.5,3.4-2.4l5.9,8.9c-1.5,1.2-3.2,2.4-5.1,3.4
    c-1.6,0.9-3.6,1.6-5.9,2.3c-2.3,0.7-4.9,1-7.7,1c-3.6,0-6.9-0.6-9.9-1.9c-3.1-1.3-5.7-3-8-5.2c-2.3-2.2-4-4.8-5.3-7.8
    c-1.3-3-1.9-6.2-1.9-9.6c0-3.4,0.6-6.6,1.8-9.6c1.2-3,2.8-5.6,4.9-7.8c2.1-2.2,4.6-4,7.5-5.2C263.2,118.8,266.3,118.2,269.7,118.2z
     M281.4,138.4c-0.1-1-0.3-2-0.8-3.2c-0.5-1.1-1.2-2.2-2.2-3.1c-1-1-2.2-1.7-3.6-2.3c-1.5-0.6-3.2-0.9-5.1-0.9
    c-1.9,0-3.5,0.3-4.9,0.9c-1.4,0.6-2.6,1.3-3.5,2.3c-0.9,0.9-1.7,1.9-2.2,3.1c-0.5,1.1-0.8,2.2-0.8,3.3H281.4z"/>
  <path fill="#1D1D1B" d="M347.5,119.3v46.8h-11V160c-0.9,1.4-1.9,2.6-3.3,3.7c-1.1,0.9-2.6,1.8-4.4,2.5c-1.8,0.8-4,1.1-6.5,1.1
    c-3,0-5.9-0.6-8.7-1.8c-2.8-1.2-5.2-2.9-7.3-5.1c-2.1-2.2-3.7-4.8-5-7.7c-1.2-3-1.9-6.3-1.9-9.9c0-3.6,0.6-6.9,1.9-9.9
    c1.2-3,2.9-5.6,5-7.7c2.1-2.2,4.5-3.9,7.3-5.1c2.8-1.2,5.7-1.8,8.7-1.8c2.4,0,4.6,0.4,6.4,1.1c1.8,0.8,3.3,1.6,4.4,2.5
    c1.3,1.1,2.4,2.3,3.4,3.7v-6.1H347.5z M335.6,135.7c-0.7-1.2-1.6-2.3-2.7-3.3c-0.9-0.8-2.1-1.5-3.4-2.2c-1.4-0.7-3-1-4.9-1
    c-2,0-3.8,0.4-5.4,1c-1.6,0.7-3,1.6-4.1,2.9c-1.1,1.2-2,2.6-2.6,4.3c-0.6,1.6-0.9,3.4-0.9,5.3c0,1.9,0.3,3.7,0.9,5.3
    c0.6,1.6,1.4,3.1,2.6,4.3c1.1,1.2,2.5,2.2,4.1,2.9c1.6,0.7,3.4,1,5.4,1c1.9,0,3.6-0.3,4.9-1c1.4-0.7,2.5-1.4,3.4-2.3
    c1.1-0.9,1.9-2,2.7-3.3V135.7z"/>
  <path fill="#1D1D1B" d="M381.8,118.2c1,0,2.1,0.1,3.1,0.2c1,0.2,1.8,0.3,2.6,0.5c0.9,0.3,1.7,0.5,2.5,0.7l-4.1,10.7
    c-0.4-0.1-0.9-0.3-1.5-0.5c-0.5-0.1-1.1-0.3-1.8-0.4c-0.7-0.1-1.5-0.2-2.3-0.2c-1.8,0-3.4,0.3-4.7,1c-1.3,0.7-2.4,1.4-3.2,2.2
    c-1,0.9-1.8,2-2.6,3.2v30.6h-11.8v-46.8h11.2v6.8c0.8-1.4,1.9-2.8,3.1-3.9c1-1,2.4-1.9,4-2.8C377.8,118.6,379.6,118.2,381.8,118.2z
    "/>
  <path fill="#1D1D1B" d="M421,118.2c2.2,0,4.4,0.4,6.5,1.2c2.1,0.8,3.9,1.9,5.5,3.5c1.6,1.5,2.8,3.4,3.8,5.5
    c0.9,2.2,1.4,4.7,1.4,7.5v30.3h-11.9v-27.3c0-3.4-0.9-5.8-2.7-7.3c-1.8-1.5-4-2.3-6.6-2.3c-1.5,0-2.8,0.3-4,1
    c-1.2,0.7-2.1,1.4-2.9,2.1c-0.9,0.9-1.7,1.8-2.4,3v30.9H396v-46.8H407v6.8c0.9-1.4,1.9-2.8,3.3-3.9c1.1-1,2.6-1.9,4.3-2.8
    C416.4,118.6,418.5,118.2,421,118.2z"/>
</g>
<polygon fill="#DE00A5" points="161.1,0 161.1,55.2 108.4,55.2 108.4,103.8 55.2,103.8 55.2,152.2 0,152.2 0,166.2 69.1,166.2
  69.1,117.7 122.4,117.7 122.4,69.1 175.1,69.1 175.1,0 "/>
</svg>
