<?xml version="1.0" standalone="no"?>
<!DOCTYPE svg PUBLIC "-//W3C//DTD SVG 1.1//EN" "http://www.w3.org/Graphics/SVG/1.1/DTD/svg11.dtd">
<svg width="120%" height="120%" viewBox="0 0 1280 800" version="1.1" xmlns="http://www.w3.org/2000/svg" xmlns:xlink="http://www.w3.org/1999/xlink" xml:space="preserve" style="fill-rule:evenodd;clip-rule:evenodd;stroke-linejoin:round;stroke-miterlimit:1.41421;">
    <g>
        <g transform="matrix(1.75316,0,0,1.75316,98.1168,-291.55)">
            <path d="M246.174,240.271L266.334,186.677L302.667,230.933L273.847,231.946L246.174,240.271Z" style="fill:rgb(255,195,46);fill-rule:nonzero;"/>
        </g>
        <g transform="matrix(1.75316,0,0,1.75316,98.1168,-291.55)">
            <path d="M190.612,279.157L186.832,222.02L238.203,247.316L212.372,260.143L190.612,279.157Z" style="fill:rgb(255,195,46);fill-rule:nonzero;"/>
        </g>
        <g transform="matrix(1.75316,0,0,1.75316,98.1168,-291.55)">
            <path d="M221.542,254.065L231.057,197.6L275.2,234.073L247.105,240.591L221.542,254.065Z" style="fill:rgb(253,240,86);fill-rule:nonzero;"/>
        </g>
        <g transform="matrix(1.75316,0,0,1.75316,98.1168,-291.55)">
            <path d="M147.307,344.78L118.371,295.37L175.63,295.017L158.266,318.043L147.307,344.78Z" style="fill:rgb(255,195,46);fill-rule:nonzero;"/>
        </g>
        <g transform="matrix(1.75316,0,0,1.75316,98.1168,-291.55)">
            <path d="M163.167,306.167L152.116,249.982L206.297,268.503L182.32,284.526L163.167,306.167Z" style="fill:rgb(253,240,86);fill-rule:nonzero;"/>
        </g>
        <g transform="matrix(1.75316,0,0,1.75316,98.1168,-291.55)">
            <path d="M246.906,550.987L196.803,578.708L197.849,521.455L220.443,539.376L246.906,550.987Z" style="fill:rgb(255,195,46);fill-rule:nonzero;"/>
        </g>
        <g transform="matrix(1.75316,0,0,1.75316,98.1168,-291.55)">
            <path d="M175.772,503.24L118.519,502.455L147.828,453.263L158.556,480.032L175.772,503.24Z" style="fill:rgb(255,195,46);fill-rule:nonzero;"/>
        </g>
        <g transform="matrix(1.75316,0,0,1.75316,98.1168,-291.55)">
            <path d="M211.042,533.663L155.891,549.065L170.128,493.603L187.976,516.258L211.042,533.663Z" style="fill:rgb(253,240,86);fill-rule:nonzero;"/>
        </g>
        <g transform="matrix(1.75316,0,0,1.75316,98.1168,-291.55)">
            <path d="M138.054,431.974L90.684,399.805L142.229,374.865L136.452,403.121L138.054,431.974Z" style="fill:rgb(255,195,46);fill-rule:nonzero;"/>
        </g>
        <g transform="matrix(1.75316,0,0,1.75316,98.1168,-291.55)">
            <path d="M137.214,385.553L95.547,346.275L150.396,329.832L140.209,356.815L137.214,385.553Z" style="fill:rgb(253,240,86);fill-rule:nonzero;"/>
        </g>
        <g transform="matrix(1.75316,0,0,1.75316,98.1168,-291.55)">
            <path d="M153.226,470.408L97.7,456.422L137.576,415.326L141.834,443.853L153.226,470.408Z" style="fill:rgb(253,240,86);fill-rule:nonzero;"/>
        </g>
        <g transform="matrix(1.75316,0,0,1.75316,98.1168,-291.55)">
            <path d="M394.955,535.4L387.357,592.155L342.006,557.197L369.863,549.733L394.955,535.4Z" style="fill:rgb(255,195,46);fill-rule:nonzero;"/>
        </g>
        <g transform="matrix(1.75316,0,0,1.75316,98.1168,-291.55)">
            <path d="M314.225,564.07L279.471,609.578L257.437,556.729L285.325,564.065L314.225,564.07Z" style="fill:rgb(255,195,46);fill-rule:nonzero;"/>
        </g>
        <g transform="matrix(1.75316,0,0,1.75316,98.1168,-291.55)">
            <path d="M359.673,553.877L339.176,607.345L303.12,562.859L331.949,562.028L359.673,553.877Z" style="fill:rgb(253,240,86);fill-rule:nonzero;"/>
        </g>
        <g transform="matrix(1.75316,0,0,1.75316,98.1168,-291.55)">
            <path d="M450.386,479.64L468.976,533.798L412.777,522.816L434.354,503.681L450.386,479.64Z" style="fill:rgb(255,195,46);fill-rule:nonzero;"/>
        </g>
        <g transform="matrix(1.75316,0,0,1.75316,98.1168,-291.55)">
            <path d="M427.201,514.354L426.919,571.613L377.473,542.74L404.146,531.776L427.201,514.354Z" style="fill:rgb(253,240,86);fill-rule:nonzero;"/>
        </g>
        <g transform="matrix(1.75316,0,0,1.75316,98.1168,-291.55)">
            <path d="M274.421,562.609L230.101,598.864L220.862,542.353L246.307,555.935L274.421,562.609Z" style="fill:rgb(253,240,86);fill-rule:nonzero;"/>
        </g>
        <g transform="matrix(1.75316,0,0,1.75316,98.1168,-291.55)">
            <path d="M393.546,257.806L448.143,240.544L435.792,296.458L417.189,274.42L393.546,257.806Z" style="fill:rgb(255,195,46);fill-rule:nonzero;"/>
        </g>
        <g transform="matrix(1.75316,0,0,1.75316,98.1168,-291.55)">
            <path d="M453.828,318.68L509.796,330.777L471.335,373.198L466.114,344.835L453.828,318.68Z" style="fill:rgb(255,195,46);fill-rule:nonzero;"/>
        </g>
        <g transform="matrix(1.75316,0,0,1.75316,98.1168,-291.55)">
            <path d="M425.274,281.881L482.382,277.693L457.455,329.244L444.441,303.505L425.274,281.881Z" style="fill:rgb(253,240,86);fill-rule:nonzero;"/>
        </g>
        <g transform="matrix(1.75316,0,0,1.75316,98.1168,-291.55)">
            <path d="M319.504,231.353L360.615,191.495L374.577,247.028L348.082,235.638L319.504,231.353Z" style="fill:rgb(255,195,46);fill-rule:nonzero;"/>
        </g>
        <g transform="matrix(1.75316,0,0,1.75316,98.1168,-291.55)">
            <path d="M360.783,237.572L412.727,213.474L407.624,270.507L386.356,251.028L360.783,237.572Z" style="fill:rgb(253,240,86);fill-rule:nonzero;"/>
        </g>
        <g transform="matrix(1.75316,0,0,1.75316,98.1168,-291.55)">
            <path d="M277.5,231.247L305.741,181.435L334.759,230.798L306.129,227.321L277.5,231.247Z" style="fill:rgb(253,240,86);fill-rule:nonzero;"/>
        </g>
        <g transform="matrix(1.75316,0,0,1.75316,98.1168,-291.55)">
            <path d="M476.704,396L516.774,436.904L461.314,451.154L472.566,424.6L476.704,396Z" style="fill:rgb(255,195,46);fill-rule:nonzero;"/>
        </g>
        <g transform="matrix(1.75316,0,0,1.75316,98.1168,-291.55)">
            <path d="M468.345,441.669L501.418,488.413L444.4,493.682L459.724,469.247L468.345,441.669Z" style="fill:rgb(253,240,86);fill-rule:nonzero;"/>
        </g>
        <g transform="matrix(1.75316,0,0,1.75316,98.1168,-291.55)">
            <path d="M469.435,355.324L521.097,380.018L473.88,412.413L475.349,383.608L469.435,355.324Z" style="fill:rgb(253,240,86);fill-rule:nonzero;"/>
        </g>
    </g>
    <g transform="matrix(1.79552,0,0,1.79552,84.4353,-306.829)">
        <circle cx="306" cy="396" r="164.754" style="fill:rgb(251,239,87);"/>
        <path d="M306.273,227.246L306.545,227.247L306.818,227.248L307.09,227.249L307.363,227.251L307.635,227.254L307.907,227.257L308.179,227.26L308.451,227.263L308.722,227.268L308.994,227.272L309.266,227.277L309.537,227.282L309.809,227.288L310.08,227.294L310.351,227.301L310.622,227.308L310.893,227.316L311.164,227.324L311.435,227.332L311.705,227.341L311.976,227.35L312.246,227.36L312.517,227.37L312.787,227.38L313.057,227.391L313.327,227.403L313.597,227.414L313.867,227.427L314.138,227.439L314.676,227.466L315.214,227.494L315.752,227.524L316.29,227.555L316.828,227.589L317.364,227.624L317.901,227.66L318.437,227.698L318.972,227.738L319.507,227.78L320.042,227.823L320.576,227.868L321.11,227.915L321.643,227.963L322.176,228.013L322.708,228.065L323.24,228.118L323.771,228.173L324.302,228.229L324.832,228.287L325.362,228.347L325.891,228.409L326.42,228.472L326.949,228.536L327.477,228.603L328.004,228.671L328.531,228.74L329.057,228.811L329.583,228.884L330.108,228.959L330.633,229.035L331.157,229.113L331.681,229.192L332.204,229.273L332.727,229.355L333.249,229.439L333.771,229.525L334.292,229.612L334.813,229.701L335.333,229.792L335.852,229.884L336.371,229.977L336.89,230.073L337.408,230.169L337.925,230.268L338.442,230.368L338.958,230.469L339.474,230.572L339.989,230.677L340.503,230.783L341.017,230.891L341.531,231.001L342.044,231.111L342.556,231.224L343.068,231.338L343.579,231.454L344.089,231.571L344.599,231.689L345.108,231.81L345.617,231.931L346.125,232.055L346.633,232.179L347.14,232.306L347.646,232.434L348.152,232.563L348.657,232.694L349.162,232.826L349.665,232.96L350.169,233.096L350.671,233.233L351.173,233.371L351.675,233.511L352.176,233.653L352.676,233.796L353.175,233.941L353.674,234.087L354.173,234.234L354.67,234.383L355.167,234.534L355.663,234.686L356.159,234.839L356.654,234.994L357.149,235.15L357.642,235.308L358.135,235.468L358.628,235.629L359.12,235.791L359.611,235.955L360.101,236.12L360.591,236.287L361.08,236.455L361.568,236.624L362.056,236.795L362.543,236.968L363.029,237.142L363.515,237.317L364,237.494L364.484,237.673L364.968,237.852L365.451,238.033L365.933,238.216L366.414,238.4L366.895,238.586L367.375,238.773L367.854,238.961L368.333,239.151L368.811,239.342L369.288,239.534L369.765,239.728L370.24,239.924L370.715,240.12L371.19,240.319L371.663,240.518L372.136,240.719L372.608,240.921L373.079,241.125L373.55,241.33L374.02,241.537L374.489,241.745L374.957,241.954L375.425,242.165L375.892,242.377L376.358,242.59L376.823,242.805L377.288,243.021L377.752,243.239L378.215,243.458L378.677,243.678L379.138,243.9L379.599,244.123L380.059,244.347L380.518,244.573L380.977,244.8L381.434,245.028L381.891,245.258L382.347,245.489L382.802,245.722L383.256,245.955L383.71,246.19L384.163,246.427L384.615,246.665L385.066,246.904L385.516,247.144L385.966,247.386L386.415,247.629L386.863,247.873L387.31,248.119L387.756,248.366L388.201,248.614L388.646,248.864L389.09,249.114L389.533,249.367L389.975,249.62L390.416,249.875L390.857,250.131L391.296,250.388L391.735,250.647L392.173,250.907L392.61,251.168L393.046,251.43L393.482,251.694L393.916,251.959L394.35,252.225L394.783,252.493L395.214,252.762L395.645,253.032L396.076,253.303L396.505,253.576L396.933,253.85L397.361,254.125L397.787,254.401L398.213,254.679L398.638,254.958L399.062,255.238L399.485,255.519L399.907,255.802L400.329,256.085L400.749,256.37L401.168,256.657L401.587,256.944L402.005,257.233L402.421,257.523L402.837,257.814L403.252,258.106L403.666,258.4L404.079,258.695L404.491,258.991L404.903,259.288L405.313,259.586L405.722,259.886L406.131,260.187L406.538,260.489L406.945,260.792L407.35,261.096L407.755,261.402L408.159,261.708L408.562,262.016L408.963,262.325L409.364,262.636L409.764,262.947L410.163,263.26L410.561,263.574L410.958,263.889L411.354,264.205L411.749,264.522L412.143,264.84L412.536,265.16L412.929,265.481L413.32,265.803L413.71,266.126L414.099,266.45L414.487,266.775L414.875,267.102L415.261,267.429L415.646,267.758L416.03,268.088L416.414,268.419L416.796,268.751L417.177,269.084L417.557,269.419L417.937,269.754L418.315,270.091L418.692,270.429L419.068,270.768L419.443,271.108L419.817,271.449L420.19,271.791L420.562,272.134L420.934,272.478L421.303,272.824L421.672,273.17L422.04,273.518L422.407,273.867L422.773,274.217L423.138,274.568L423.501,274.92L423.864,275.273L424.226,275.627L424.586,275.982L424.946,276.338L425.304,276.696L425.662,277.054L426.018,277.414L426.373,277.774L426.727,278.136L427.08,278.498L427.432,278.862L427.783,279.227L428.133,279.593L428.482,279.96L428.83,280.328L429.176,280.697L429.522,281.067L429.866,281.438L430.209,281.81L430.551,282.183L430.893,282.557L431.232,282.932L431.571,283.308L431.909,283.685L432.246,284.063L432.581,284.443L432.916,284.823L433.249,285.204L433.581,285.586L433.912,285.97L434.242,286.354L434.571,286.739L434.898,287.125L435.225,287.512L435.55,287.901L435.874,288.29L436.197,288.68L436.519,289.071L436.84,289.463L437.16,289.857L437.478,290.251L437.795,290.646L438.111,291.042L438.426,291.439L438.74,291.837L439.053,292.236L439.364,292.636L439.675,293.037L439.984,293.438L440.292,293.841L440.598,294.245L440.904,294.65L441.208,295.055L441.512,295.462L441.813,295.869L442.114,296.278L442.414,296.687L442.712,297.097L443.009,297.509L443.305,297.921L443.6,298.334L443.894,298.748L444.186,299.163L444.477,299.579L444.767,299.995L445.056,300.413L445.343,300.832L445.63,301.251L445.915,301.671L446.198,302.093L446.481,302.515L446.762,302.938L447.042,303.362L447.321,303.787L447.599,304.213L447.875,304.639L448.15,305.067L448.424,305.495L448.697,305.924L448.968,306.355L449.238,306.786L449.507,307.217L449.775,307.65L450.041,308.084L450.306,308.518L450.57,308.954L450.832,309.39L451.093,309.827L451.353,310.265L451.612,310.704L451.869,311.143L452.125,311.584L452.38,312.025L452.633,312.467L452.886,312.91L453.136,313.354L453.386,313.798L453.634,314.244L453.881,314.69L454.127,315.137L454.371,315.585L454.614,316.034L454.856,316.484L455.096,316.934L455.335,317.385L455.573,317.837L455.81,318.29L456.045,318.743L456.278,319.198L456.511,319.653L456.742,320.109L456.972,320.566L457.2,321.023L457.427,321.482L457.653,321.941L457.877,322.401L458.1,322.862L458.322,323.323L458.542,323.785L458.761,324.248L458.979,324.712L459.195,325.177L459.41,325.642L459.623,326.108L459.835,326.575L460.046,327.043L460.255,327.511L460.463,327.98L460.67,328.45L460.875,328.921L461.079,329.392L461.281,329.864L461.482,330.337L461.681,330.81L461.88,331.285L462.076,331.76L462.272,332.235L462.466,332.712L462.658,333.189L462.849,333.667L463.039,334.146L463.228,334.625L463.414,335.105L463.6,335.586L463.784,336.067L463.966,336.549L464.148,337.032L464.327,337.516L464.506,338L464.683,338.485L464.858,338.971L465.032,339.457L465.205,339.944L465.376,340.432L465.545,340.92L465.713,341.409L465.88,341.899L466.045,342.389L466.209,342.88L466.371,343.372L466.532,343.865L466.692,344.358L466.85,344.851L467.006,345.346L467.161,345.841L467.314,346.337L467.466,346.833L467.617,347.33L467.766,347.827L467.913,348.326L468.059,348.825L468.204,349.324L468.347,349.824L468.489,350.325L468.629,350.827L468.767,351.329L468.904,351.831L469.04,352.335L469.174,352.838L469.306,353.343L469.437,353.848L469.566,354.354L469.694,354.86L469.821,355.367L469.945,355.875L470.069,356.383L470.19,356.892L470.311,357.401L470.429,357.911L470.546,358.421L470.662,358.932L470.776,359.444L470.889,359.956L470.999,360.469L471.109,360.982L471.217,361.496L471.323,362.011L471.428,362.526L471.531,363.042L471.632,363.558L471.732,364.075L471.831,364.592L471.927,365.11L472.023,365.629L472.116,366.148L472.208,366.667L472.299,367.187L472.388,367.708L472.475,368.229L472.561,368.751L472.645,369.273L472.727,369.796L472.808,370.319L472.887,370.843L472.965,371.367L473.041,371.892L473.116,372.417L473.189,372.943L473.26,373.469L473.329,373.996L473.397,374.524L473.464,375.051L473.528,375.58L473.591,376.109L473.653,376.638L473.713,377.168L473.771,377.698L473.827,378.229L473.882,378.76L473.935,379.292L473.987,379.824L474.037,380.357L474.085,380.89L474.132,381.424L474.177,381.958L474.22,382.493L474.262,383.028L474.302,383.563L474.34,384.099L474.377,384.636L474.411,385.172L474.445,385.71L474.476,386.248L474.506,386.786L474.534,387.324L474.561,387.862L474.573,388.133L474.586,388.403L474.597,388.673L474.609,388.943L474.62,389.213L474.63,389.483L474.64,389.754L474.65,390.024L474.659,390.295L474.668,390.565L474.676,390.836L474.684,391.107L474.692,391.378L474.699,391.649L474.706,391.92L474.712,392.191L474.718,392.463L474.723,392.734L474.728,393.006L474.732,393.277L474.737,393.549L474.74,393.821L474.743,394.093L474.746,394.365L474.749,394.638L474.751,394.91L474.752,395.182L474.753,395.455L474.754,395.727L474.754,396L474.754,396.273L474.753,396.545L474.752,396.818L474.751,397.09L474.749,397.362L474.746,397.635L474.743,397.907L474.74,398.179L474.737,398.451L474.732,398.723L474.728,398.994L474.723,399.266L474.718,399.537L474.712,399.809L474.706,400.08L474.699,400.351L474.692,400.622L474.684,400.893L474.676,401.164L474.668,401.435L474.659,401.705L474.65,401.976L474.64,402.246L474.63,402.517L474.62,402.787L474.609,403.057L474.597,403.327L474.586,403.597L474.573,403.867L474.561,404.138L474.534,404.676L474.506,405.214L474.476,405.752L474.445,406.29L474.411,406.828L474.377,407.364L474.34,407.901L474.302,408.437L474.262,408.972L474.22,409.507L474.177,410.042L474.132,410.576L474.085,411.11L474.037,411.643L473.987,412.176L473.935,412.708L473.882,413.24L473.827,413.771L473.771,414.302L473.713,414.832L473.653,415.362L473.591,415.891L473.528,416.42L473.464,416.949L473.397,417.476L473.329,418.004L473.26,418.531L473.189,419.057L473.116,419.583L473.041,420.108L472.965,420.633L472.887,421.157L472.808,421.681L472.727,422.204L472.645,422.727L472.561,423.249L472.475,423.771L472.388,424.292L472.299,424.813L472.208,425.333L472.116,425.852L472.023,426.371L471.927,426.89L471.831,427.408L471.732,427.925L471.632,428.442L471.531,428.958L471.428,429.474L471.323,429.989L471.217,430.504L471.109,431.018L470.999,431.531L470.889,432.044L470.776,432.556L470.662,433.068L470.546,433.579L470.429,434.089L470.311,434.599L470.19,435.108L470.069,435.617L469.945,436.125L469.821,436.633L469.694,437.14L469.566,437.646L469.437,438.152L469.306,438.657L469.174,439.162L469.04,439.665L468.904,440.169L468.767,440.671L468.629,441.173L468.489,441.675L468.347,442.176L468.204,442.676L468.059,443.175L467.913,443.674L467.766,444.173L467.617,444.67L467.466,445.167L467.314,445.663L467.161,446.159L467.006,446.654L466.85,447.149L466.692,447.642L466.532,448.135L466.372,448.628L466.209,449.12L466.045,449.611L465.88,450.101L465.713,450.591L465.545,451.08L465.376,451.568L465.205,452.056L465.032,452.543L464.858,453.029L464.683,453.515L464.506,454L464.327,454.484L464.148,454.968L463.966,455.451L463.784,455.933L463.6,456.414L463.414,456.895L463.228,457.375L463.039,457.854L462.849,458.333L462.658,458.811L462.466,459.288L462.272,459.765L462.076,460.24L461.88,460.715L461.681,461.19L461.482,461.663L461.281,462.136L461.079,462.608L460.875,463.079L460.67,463.55L460.463,464.02L460.255,464.489L460.046,464.957L459.835,465.425L459.623,465.892L459.41,466.358L459.195,466.823L458.979,467.288L458.761,467.752L458.542,468.215L458.322,468.677L458.1,469.138L457.877,469.599L457.653,470.059L457.427,470.518L457.2,470.977L456.972,471.434L456.742,471.891L456.511,472.347L456.278,472.802L456.045,473.257L455.81,473.71L455.573,474.163L455.335,474.615L455.096,475.066L454.856,475.516L454.614,475.966L454.371,476.415L454.127,476.863L453.881,477.31L453.634,477.756L453.386,478.201L453.136,478.646L452.886,479.09L452.633,479.533L452.38,479.975L452.125,480.416L451.869,480.857L451.612,481.296L451.353,481.735L451.093,482.173L450.832,482.61L450.57,483.046L450.306,483.482L450.041,483.916L449.775,484.35L449.507,484.783L449.238,485.214L448.968,485.645L448.697,486.076L448.424,486.505L448.15,486.933L447.875,487.361L447.599,487.787L447.321,488.213L447.042,488.638L446.762,489.062L446.481,489.485L446.198,489.907L445.915,490.329L445.63,490.749L445.343,491.168L445.056,491.587L444.767,492.005L444.477,492.421L444.186,492.837L443.894,493.252L443.6,493.666L443.305,494.079L443.009,494.491L442.712,494.903L442.414,495.313L442.114,495.722L441.813,496.131L441.512,496.538L441.208,496.945L440.904,497.35L440.598,497.755L440.292,498.159L439.984,498.562L439.675,498.963L439.364,499.364L439.053,499.764L438.74,500.163L438.427,500.561L438.111,500.958L437.795,501.354L437.478,501.749L437.16,502.143L436.84,502.537L436.519,502.929L436.197,503.32L435.874,503.71L435.55,504.099L435.225,504.488L434.898,504.875L434.571,505.261L434.242,505.646L433.912,506.03L433.581,506.414L433.249,506.796L432.916,507.177L432.581,507.557L432.246,507.937L431.909,508.315L431.571,508.692L431.232,509.068L430.892,509.443L430.551,509.817L430.209,510.19L429.866,510.562L429.522,510.933L429.176,511.304L428.83,511.672L428.482,512.04L428.133,512.407L427.783,512.773L427.432,513.138L427.08,513.502L426.727,513.864L426.373,514.226L426.018,514.586L425.662,514.946L425.304,515.304L424.946,515.662L424.586,516.018L424.226,516.373L423.864,516.727L423.502,517.08L423.138,517.432L422.773,517.783L422.407,518.133L422.04,518.482L421.672,518.83L421.303,519.176L420.934,519.521L420.563,519.866L420.19,520.209L419.817,520.551L419.443,520.892L419.068,521.233L418.692,521.571L418.315,521.909L417.937,522.246L417.557,522.581L417.177,522.916L416.796,523.249L416.414,523.581L416.03,523.912L415.646,524.242L415.261,524.571L414.875,524.898L414.487,525.225L414.099,525.55L413.71,525.874L413.32,526.197L412.929,526.519L412.536,526.84L412.143,527.16L411.749,527.478L411.354,527.795L410.958,528.111L410.561,528.427L410.163,528.74L409.764,529.053L409.364,529.364L408.963,529.675L408.561,529.984L408.159,530.292L407.755,530.598L407.35,530.904L406.945,531.208L406.538,531.511L406.131,531.813L405.722,532.114L405.313,532.414L404.903,532.712L404.491,533.009L404.079,533.305L403.666,533.6L403.252,533.894L402.837,534.186L402.421,534.477L402.005,534.767L401.587,535.056L401.168,535.343L400.749,535.63L400.329,535.915L399.907,536.198L399.485,536.481L399.062,536.762L398.638,537.042L398.213,537.321L397.787,537.599L397.361,537.875L396.933,538.15L396.505,538.424L396.076,538.697L395.646,538.968L395.214,539.238L394.783,539.507L394.35,539.775L393.916,540.041L393.482,540.306L393.046,540.57L392.61,540.832L392.173,541.093L391.735,541.353L391.296,541.612L390.857,541.869L390.416,542.125L389.975,542.38L389.533,542.633L389.09,542.886L388.646,543.136L388.202,543.386L387.756,543.634L387.31,543.881L386.863,544.127L386.415,544.371L385.966,544.614L385.516,544.856L385.066,545.096L384.615,545.335L384.163,545.573L383.71,545.81L383.256,546.045L382.802,546.278L382.347,546.511L381.891,546.742L381.434,546.972L380.976,547.2L380.518,547.427L380.059,547.653L379.599,547.877L379.138,548.1L378.677,548.322L378.215,548.542L377.752,548.761L377.288,548.979L376.823,549.195L376.358,549.41L375.892,549.623L375.425,549.835L374.957,550.046L374.489,550.255L374.02,550.463L373.55,550.67L373.079,550.875L372.608,551.079L372.136,551.281L371.663,551.482L371.19,551.681L370.715,551.88L370.24,552.076L369.764,552.272L369.288,552.466L368.811,552.658L368.333,552.849L367.854,553.039L367.375,553.227L366.895,553.414L366.414,553.6L365.933,553.784L365.451,553.967L364.968,554.148L364.484,554.327L364,554.506L363.515,554.683L363.029,554.858L362.543,555.032L362.056,555.205L361.568,555.376L361.08,555.545L360.591,555.713L360.101,555.88L359.611,556.045L359.119,556.209L358.628,556.371L358.135,556.532L357.642,556.692L357.149,556.85L356.654,557.006L356.159,557.161L355.664,557.314L355.167,557.466L354.67,557.617L354.173,557.766L353.674,557.913L353.175,558.059L352.676,558.204L352.176,558.347L351.675,558.489L351.173,558.629L350.671,558.767L350.169,558.904L349.665,559.04L349.162,559.174L348.657,559.306L348.152,559.437L347.646,559.566L347.14,559.694L346.633,559.821L346.125,559.945L345.617,560.069L345.108,560.19L344.599,560.311L344.089,560.429L343.579,560.546L343.067,560.662L342.556,560.776L342.044,560.889L341.531,560.999L341.018,561.109L340.504,561.217L339.989,561.323L339.474,561.428L338.958,561.531L338.442,561.632L337.925,561.732L337.408,561.831L336.89,561.927L336.371,562.023L335.852,562.116L335.333,562.208L334.813,562.299L334.292,562.388L333.771,562.475L333.249,562.561L332.727,562.645L332.204,562.727L331.681,562.808L331.157,562.887L330.633,562.965L330.108,563.041L329.583,563.116L329.057,563.189L328.531,563.26L328.004,563.329L327.476,563.397L326.949,563.464L326.42,563.528L325.891,563.591L325.362,563.653L324.832,563.713L324.302,563.771L323.771,563.827L323.24,563.882L322.708,563.935L322.176,563.987L321.643,564.037L321.11,564.085L320.576,564.132L320.042,564.177L319.507,564.22L318.972,564.262L318.437,564.302L317.901,564.34L317.364,564.376L316.828,564.411L316.29,564.445L315.752,564.476L315.214,564.506L314.676,564.534L314.138,564.561L313.867,564.573L313.597,564.586L313.327,564.597L313.057,564.609L312.787,564.62L312.517,564.63L312.246,564.64L311.976,564.65L311.705,564.659L311.435,564.668L311.164,564.676L310.893,564.684L310.622,564.692L310.351,564.699L310.08,564.706L309.809,564.712L309.537,564.718L309.266,564.723L308.994,564.728L308.722,564.732L308.451,564.737L308.179,564.74L307.907,564.743L307.634,564.746L307.362,564.749L307.09,564.751L306.818,564.752L306.545,564.753L306.273,564.754L306,564.754L305.727,564.754L305.455,564.753L305.182,564.752L304.91,564.751L304.638,564.749L304.366,564.746L304.093,564.743L303.821,564.74L303.549,564.737L303.278,564.732L303.006,564.728L302.734,564.723L302.463,564.718L302.191,564.712L301.92,564.706L301.649,564.699L301.378,564.692L301.107,564.684L300.836,564.676L300.565,564.668L300.295,564.659L300.024,564.65L299.754,564.64L299.483,564.63L299.213,564.62L298.943,564.609L298.673,564.597L298.403,564.586L298.133,564.573L297.862,564.561L297.324,564.534L296.786,564.506L296.248,564.476L295.71,564.445L295.172,564.411L294.636,564.376L294.099,564.34L293.563,564.302L293.028,564.262L292.493,564.22L291.958,564.177L291.424,564.132L290.89,564.085L290.357,564.037L289.824,563.987L289.292,563.935L288.76,563.882L288.229,563.827L287.698,563.771L287.168,563.713L286.638,563.653L286.109,563.591L285.58,563.528L285.051,563.464L284.524,563.397L283.996,563.329L283.469,563.26L282.943,563.189L282.417,563.116L281.892,563.041L281.367,562.965L280.843,562.887L280.319,562.808L279.796,562.727L279.273,562.645L278.751,562.561L278.229,562.475L277.708,562.388L277.187,562.299L276.667,562.208L276.148,562.116L275.629,562.023L275.11,561.927L274.592,561.831L274.075,561.732L273.558,561.632L273.042,561.531L272.526,561.428L272.011,561.323L271.497,561.217L270.982,561.109L270.469,560.999L269.956,560.889L269.444,560.776L268.932,560.662L268.421,560.546L267.911,560.429L267.401,560.311L266.892,560.19L266.383,560.069L265.875,559.945L265.367,559.821L264.86,559.694L264.354,559.566L263.848,559.437L263.343,559.306L262.839,559.174L262.335,559.04L261.831,558.904L261.329,558.767L260.827,558.629L260.325,558.489L259.824,558.347L259.324,558.204L258.825,558.059L258.326,557.913L257.827,557.766L257.33,557.617L256.833,557.466L256.336,557.314L255.841,557.161L255.346,557.006L254.851,556.85L254.358,556.692L253.865,556.532L253.372,556.371L252.881,556.209L252.389,556.045L251.899,555.88L251.409,555.713L250.92,555.545L250.432,555.376L249.944,555.205L249.457,555.032L248.971,554.858L248.485,554.683L248,554.506L247.516,554.327L247.032,554.148L246.549,553.967L246.067,553.784L245.586,553.6L245.105,553.414L244.625,553.227L244.146,553.039L243.667,552.849L243.189,552.658L242.712,552.466L242.236,552.272L241.76,552.076L241.285,551.88L240.81,551.681L240.337,551.482L239.864,551.281L239.392,551.079L238.921,550.875L238.45,550.67L237.98,550.463L237.511,550.255L237.043,550.046L236.575,549.835L236.108,549.623L235.642,549.41L235.177,549.195L234.712,548.979L234.248,548.761L233.785,548.542L233.323,548.322L232.862,548.1L232.401,547.877L231.941,547.653L231.482,547.427L231.024,547.2L230.566,546.972L230.109,546.742L229.653,546.511L229.198,546.278L228.744,546.045L228.29,545.81L227.837,545.573L227.385,545.335L226.934,545.096L226.484,544.856L226.034,544.614L225.585,544.371L225.137,544.127L224.69,543.881L224.244,543.634L223.798,543.386L223.354,543.136L222.91,542.886L222.467,542.633L222.025,542.38L221.584,542.125L221.143,541.869L220.704,541.612L220.265,541.353L219.827,541.093L219.39,540.832L218.954,540.57L218.518,540.306L218.084,540.041L217.65,539.775L217.217,539.507L216.786,539.238L216.354,538.968L215.924,538.697L215.495,538.424L215.067,538.15L214.639,537.875L214.213,537.599L213.787,537.321L213.362,537.042L212.938,536.762L212.515,536.481L212.093,536.198L211.671,535.915L211.251,535.63L210.832,535.343L210.413,535.056L209.995,534.767L209.579,534.477L209.163,534.186L208.748,533.894L208.334,533.6L207.921,533.305L207.509,533.009L207.097,532.712L206.687,532.414L206.278,532.114L205.869,531.813L205.462,531.511L205.055,531.208L204.65,530.904L204.245,530.598L203.841,530.292L203.438,529.984L203.037,529.675L202.636,529.364L202.236,529.053L201.837,528.74L201.439,528.427L201.042,528.111L200.646,527.795L200.251,527.478L199.857,527.16L199.464,526.84L199.071,526.519L198.68,526.197L198.29,525.874L197.901,525.55L197.513,525.225L197.125,524.898L196.739,524.571L196.354,524.242L195.97,523.912L195.586,523.581L195.204,523.249L194.823,522.916L194.443,522.581L194.063,522.246L193.685,521.909L193.308,521.571L192.932,521.233L192.557,520.892L192.183,520.551L191.81,520.209L191.437,519.866L191.066,519.522L190.697,519.176L190.328,518.83L189.96,518.482L189.593,518.133L189.227,517.783L188.862,517.432L188.499,517.08L188.136,516.727L187.774,516.373L187.414,516.018L187.054,515.662L186.696,515.304L186.338,514.946L185.982,514.586L185.627,514.226L185.273,513.864L184.92,513.502L184.568,513.138L184.217,512.773L183.867,512.407L183.518,512.04L183.17,511.672L182.824,511.303L182.478,510.933L182.134,510.562L181.791,510.19L181.449,509.817L181.108,509.443L180.768,509.068L180.429,508.692L180.091,508.315L179.754,507.937L179.419,507.557L179.084,507.177L178.751,506.796L178.419,506.414L178.088,506.03L177.758,505.646L177.429,505.261L177.102,504.875L176.775,504.487L176.45,504.099L176.126,503.71L175.803,503.32L175.481,502.929L175.16,502.537L174.84,502.143L174.522,501.749L174.205,501.354L173.888,500.958L173.573,500.561L173.26,500.163L172.947,499.764L172.636,499.364L172.325,498.963L172.016,498.562L171.708,498.159L171.402,497.755L171.096,497.35L170.792,496.945L170.488,496.538L170.187,496.131L169.886,495.722L169.586,495.313L169.288,494.903L168.991,494.491L168.695,494.079L168.4,493.666L168.106,493.252L167.814,492.837L167.523,492.421L167.233,492.005L166.944,491.587L166.657,491.168L166.37,490.749L166.085,490.329L165.802,489.907L165.519,489.485L165.238,489.062L164.958,488.638L164.679,488.213L164.401,487.787L164.125,487.361L163.85,486.933L163.576,486.505L163.303,486.076L163.032,485.645L162.762,485.214L162.493,484.783L162.225,484.35L161.959,483.916L161.694,483.482L161.43,483.046L161.168,482.61L160.907,482.173L160.647,481.735L160.388,481.296L160.131,480.857L159.875,480.416L159.62,479.975L159.367,479.533L159.114,479.09L158.864,478.646L158.614,478.201L158.366,477.756L158.119,477.31L157.873,476.863L157.629,476.415L157.386,475.966L157.144,475.516L156.904,475.066L156.665,474.615L156.427,474.163L156.19,473.71L155.955,473.256L155.722,472.802L155.489,472.347L155.258,471.891L155.028,471.434L154.8,470.976L154.573,470.518L154.347,470.059L154.123,469.599L153.9,469.138L153.678,468.677L153.458,468.215L153.239,467.752L153.021,467.288L152.805,466.823L152.59,466.358L152.377,465.892L152.165,465.425L151.954,464.957L151.745,464.489L151.537,464.02L151.33,463.55L151.125,463.079L150.921,462.608L150.719,462.136L150.518,461.663L150.319,461.19L150.12,460.715L149.924,460.24L149.728,459.765L149.534,459.288L149.342,458.811L149.151,458.333L148.961,457.854L148.772,457.375L148.586,456.895L148.4,456.414L148.216,455.933L148.033,455.451L147.852,454.968L147.673,454.484L147.494,454L147.317,453.515L147.142,453.029L146.968,452.543L146.795,452.056L146.624,451.568L146.455,451.08L146.287,450.591L146.12,450.101L145.955,449.611L145.791,449.12L145.629,448.628L145.468,448.135L145.308,447.642L145.15,447.149L144.994,446.654L144.839,446.159L144.686,445.663L144.534,445.167L144.383,444.67L144.234,444.173L144.087,443.674L143.941,443.175L143.796,442.676L143.653,442.176L143.511,441.675L143.371,441.173L143.233,440.671L143.096,440.169L142.96,439.665L142.826,439.162L142.694,438.657L142.563,438.152L142.434,437.646L142.306,437.14L142.179,436.633L142.055,436.125L141.931,435.617L141.81,435.108L141.689,434.599L141.571,434.089L141.454,433.579L141.338,433.068L141.224,432.556L141.111,432.044L141.001,431.531L140.891,431.017L140.783,430.503L140.677,429.989L140.572,429.474L140.469,428.958L140.368,428.442L140.268,427.925L140.169,427.408L140.073,426.89L139.977,426.371L139.884,425.852L139.792,425.333L139.701,424.813L139.612,424.292L139.525,423.771L139.439,423.249L139.355,422.727L139.273,422.204L139.192,421.681L139.112,421.157L139.035,420.633L138.959,420.108L138.884,419.583L138.811,419.057L138.74,418.531L138.671,418.004L138.603,417.477L138.536,416.949L138.472,416.42L138.409,415.891L138.347,415.362L138.287,414.832L138.229,414.302L138.173,413.771L138.118,413.24L138.065,412.708L138.013,412.176L137.963,411.643L137.915,411.11L137.868,410.576L137.823,410.042L137.78,409.507L137.738,408.972L137.698,408.437L137.66,407.901L137.624,407.364L137.589,406.828L137.555,406.29L137.524,405.753L137.494,405.214L137.466,404.676L137.439,404.138L137.427,403.867L137.414,403.597L137.403,403.327L137.391,403.057L137.38,402.787L137.37,402.517L137.36,402.246L137.35,401.976L137.341,401.705L137.332,401.435L137.324,401.164L137.316,400.893L137.308,400.622L137.301,400.351L137.294,400.08L137.288,399.809L137.282,399.537L137.277,399.266L137.272,398.994L137.268,398.722L137.263,398.451L137.26,398.179L137.257,397.907L137.254,397.635L137.251,397.362L137.249,397.09L137.248,396.818L137.247,396.545L137.246,396.273L137.246,396L137.246,395.727L137.247,395.455L137.248,395.182L137.249,394.91L137.251,394.638L137.254,394.365L137.257,394.093L137.26,393.821L137.263,393.549L137.268,393.278L137.272,393.006L137.277,392.734L137.282,392.463L137.288,392.191L137.294,391.92L137.301,391.649L137.308,391.378L137.316,391.107L137.324,390.836L137.332,390.565L137.341,390.295L137.35,390.024L137.36,389.754L137.37,389.483L137.38,389.213L137.391,388.943L137.403,388.673L137.414,388.403L137.427,388.133L137.439,387.862L137.466,387.324L137.494,386.786L137.524,386.247L137.555,385.71L137.589,385.172L137.624,384.636L137.66,384.099L137.698,383.563L137.738,383.028L137.78,382.493L137.823,381.958L137.868,381.424L137.915,380.89L137.963,380.357L138.013,379.824L138.065,379.292L138.118,378.76L138.173,378.229L138.229,377.698L138.287,377.168L138.347,376.638L138.409,376.109L138.472,375.58L138.536,375.051L138.603,374.523L138.671,373.996L138.74,373.469L138.811,372.943L138.884,372.417L138.959,371.892L139.035,371.367L139.112,370.843L139.192,370.319L139.273,369.796L139.355,369.273L139.439,368.751L139.525,368.229L139.612,367.708L139.701,367.187L139.792,366.667L139.884,366.148L139.977,365.629L140.073,365.11L140.169,364.592L140.268,364.075L140.368,363.558L140.469,363.042L140.572,362.526L140.677,362.011L140.783,361.497L140.891,360.983L141.001,360.469L141.111,359.956L141.224,359.444L141.338,358.932L141.454,358.421L141.571,357.911L141.689,357.401L141.81,356.892L141.931,356.383L142.055,355.875L142.179,355.367L142.306,354.86L142.434,354.354L142.563,353.848L142.694,353.343L142.826,352.838L142.96,352.335L143.096,351.831L143.233,351.329L143.371,350.827L143.511,350.325L143.653,349.824L143.796,349.324L143.941,348.825L144.087,348.326L144.234,347.827L144.383,347.33L144.534,346.833L144.686,346.337L144.839,345.841L144.994,345.346L145.15,344.851L145.308,344.358L145.468,343.865L145.629,343.372L145.791,342.88L145.955,342.389L146.12,341.899L146.287,341.409L146.455,340.92L146.624,340.432L146.795,339.944L146.968,339.457L147.142,338.971L147.317,338.485L147.494,338L147.673,337.516L147.852,337.032L148.033,336.549L148.216,336.067L148.4,335.586L148.586,335.105L148.772,334.625L148.961,334.146L149.151,333.667L149.342,333.189L149.534,332.712L149.728,332.235L149.924,331.76L150.12,331.285L150.319,330.81L150.518,330.337L150.719,329.864L150.921,329.392L151.125,328.921L151.33,328.45L151.537,327.98L151.745,327.511L151.954,327.043L152.165,326.575L152.377,326.108L152.59,325.642L152.805,325.177L153.021,324.712L153.239,324.248L153.458,323.785L153.678,323.323L153.9,322.862L154.123,322.401L154.347,321.941L154.573,321.482L154.8,321.024L155.028,320.566L155.258,320.109L155.489,319.653L155.722,319.198L155.955,318.744L156.19,318.29L156.427,317.837L156.665,317.385L156.904,316.934L157.144,316.484L157.386,316.034L157.629,315.585L157.873,315.137L158.119,314.69L158.366,314.244L158.614,313.799L158.864,313.354L159.114,312.91L159.367,312.467L159.62,312.025L159.875,311.584L160.131,311.143L160.388,310.704L160.647,310.265L160.907,309.827L161.168,309.39L161.43,308.954L161.694,308.518L161.959,308.084L162.225,307.65L162.493,307.217L162.762,306.786L163.032,306.355L163.303,305.924L163.576,305.495L163.85,305.067L164.125,304.639L164.401,304.213L164.679,303.787L164.958,303.362L165.238,302.938L165.519,302.515L165.802,302.093L166.085,301.671L166.37,301.251L166.657,300.832L166.944,300.413L167.233,299.995L167.523,299.579L167.814,299.163L168.106,298.748L168.4,298.334L168.695,297.921L168.991,297.509L169.288,297.097L169.586,296.687L169.886,296.278L170.187,295.869L170.488,295.462L170.792,295.055L171.096,294.65L171.402,294.245L171.708,293.841L172.016,293.438L172.325,293.037L172.636,292.636L172.947,292.236L173.26,291.837L173.574,291.439L173.888,291.042L174.205,290.646L174.522,290.251L174.84,289.857L175.16,289.463L175.481,289.071L175.803,288.68L176.126,288.29L176.45,287.901L176.775,287.513L177.102,287.125L177.429,286.739L177.758,286.354L178.088,285.97L178.419,285.586L178.751,285.204L179.084,284.823L179.419,284.443L179.754,284.063L180.091,283.685L180.429,283.308L180.768,282.932L181.107,282.557L181.449,282.183L181.791,281.81L182.134,281.438L182.478,281.067L182.824,280.697L183.17,280.328L183.518,279.96L183.867,279.593L184.217,279.227L184.568,278.862L184.92,278.498L185.273,278.136L185.627,277.774L185.982,277.414L186.338,277.054L186.696,276.696L187.054,276.338L187.414,275.982L187.774,275.627L188.136,275.273L188.499,274.92L188.862,274.568L189.227,274.217L189.593,273.867L189.96,273.518L190.328,273.17L190.697,272.824L191.067,272.478L191.438,272.134L191.81,271.791L192.183,271.449L192.557,271.108L192.932,270.768L193.308,270.429L193.685,270.091L194.063,269.754L194.443,269.419L194.823,269.084L195.204,268.751L195.586,268.419L195.97,268.088L196.354,267.758L196.739,267.429L197.125,267.102L197.513,266.775L197.901,266.45L198.29,266.126L198.68,265.803L199.071,265.481L199.464,265.16L199.857,264.84L200.251,264.522L200.646,264.205L201.042,263.889L201.439,263.574L201.837,263.26L202.236,262.947L202.636,262.636L203.037,262.325L203.438,262.016L203.841,261.708L204.245,261.402L204.65,261.096L205.055,260.792L205.462,260.489L205.869,260.187L206.278,259.886L206.687,259.586L207.097,259.288L207.509,258.991L207.921,258.695L208.334,258.4L208.748,258.106L209.163,257.814L209.579,257.523L209.995,257.233L210.413,256.944L210.832,256.657L211.251,256.37L211.671,256.085L212.093,255.802L212.515,255.519L212.938,255.238L213.362,254.958L213.787,254.679L214.213,254.401L214.639,254.125L215.067,253.85L215.495,253.576L215.924,253.303L216.355,253.032L216.786,252.762L217.217,252.493L217.65,252.225L218.084,251.959L218.518,251.694L218.954,251.43L219.39,251.168L219.827,250.907L220.265,250.647L220.704,250.388L221.143,250.131L221.584,249.875L222.025,249.62L222.467,249.367L222.91,249.114L223.354,248.864L223.799,248.614L224.244,248.366L224.69,248.119L225.137,247.873L225.585,247.629L226.034,247.386L226.484,247.144L226.934,246.904L227.385,246.665L227.837,246.427L228.29,246.19L228.744,245.955L229.198,245.722L229.653,245.489L230.109,245.258L230.566,245.028L231.023,244.8L231.482,244.573L231.941,244.347L232.401,244.123L232.862,243.9L233.323,243.678L233.785,243.458L234.248,243.239L234.712,243.021L235.177,242.805L235.642,242.59L236.108,242.377L236.575,242.165L237.043,241.954L237.511,241.745L237.98,241.537L238.45,241.33L238.921,241.125L239.392,240.921L239.864,240.719L240.337,240.518L240.81,240.319L241.285,240.12L241.76,239.924L242.235,239.728L242.712,239.534L243.189,239.342L243.667,239.151L244.146,238.961L244.625,238.773L245.105,238.586L245.586,238.4L246.067,238.216L246.549,238.033L247.032,237.852L247.516,237.673L248,237.494L248.485,237.317L248.971,237.142L249.457,236.968L249.944,236.795L250.432,236.624L250.92,236.455L251.409,236.287L251.899,236.12L252.389,235.955L252.88,235.791L253.372,235.629L253.865,235.468L254.358,235.308L254.851,235.15L255.346,234.994L255.841,234.839L256.337,234.686L256.833,234.534L257.33,234.383L257.828,234.234L258.326,234.087L258.825,233.941L259.324,233.796L259.824,233.653L260.325,233.511L260.827,233.371L261.329,233.233L261.831,233.096L262.335,232.96L262.838,232.826L263.343,232.694L263.848,232.563L264.354,232.434L264.86,232.306L265.367,232.179L265.875,232.055L266.383,231.931L266.892,231.81L267.401,231.689L267.911,231.571L268.421,231.454L268.932,231.338L269.444,231.224L269.956,231.111L270.469,231.001L270.983,230.891L271.497,230.783L272.011,230.677L272.526,230.572L273.042,230.469L273.558,230.368L274.075,230.268L274.592,230.169L275.11,230.073L275.629,229.977L276.148,229.884L276.667,229.792L277.187,229.701L277.708,229.612L278.229,229.525L278.751,229.439L279.273,229.355L279.796,229.273L280.319,229.192L280.843,229.113L281.367,229.035L281.892,228.959L282.417,228.884L282.943,228.811L283.469,228.74L283.996,228.671L284.523,228.603L285.051,228.536L285.58,228.472L286.109,228.409L286.638,228.347L287.168,228.287L287.698,228.229L288.229,228.173L288.76,228.118L289.292,228.065L289.824,228.013L290.357,227.963L290.89,227.915L291.424,227.868L291.958,227.823L292.493,227.78L293.028,227.738L293.563,227.698L294.099,227.66L294.636,227.624L295.172,227.589L295.71,227.555L296.248,227.524L296.786,227.494L297.324,227.466L297.862,227.439L298.133,227.427L298.403,227.414L298.673,227.403L298.943,227.391L299.213,227.38L299.483,227.37L299.754,227.36L300.024,227.35L300.295,227.341L300.565,227.332L300.836,227.324L301.107,227.316L301.378,227.308L301.649,227.301L301.92,227.294L302.191,227.288L302.463,227.282L302.734,227.277L303.006,227.272L303.278,227.268L303.549,227.263L303.821,227.26L304.093,227.257L304.365,227.254L304.638,227.251L304.91,227.249L305.182,227.248L305.455,227.247L305.727,227.246L306,227.246L306.273,227.246ZM305.74,235.246L305.48,235.247L305.22,235.248L304.961,235.249L304.701,235.251L304.441,235.253L304.182,235.256L303.923,235.259L303.663,235.263L303.404,235.267L303.145,235.271L302.886,235.276L302.628,235.281L302.369,235.286L302.11,235.292L301.852,235.299L301.593,235.305L301.335,235.312L301.077,235.32L300.819,235.328L300.561,235.336L300.303,235.345L300.045,235.354L299.788,235.364L299.53,235.374L299.273,235.384L299.015,235.395L298.758,235.406L298.501,235.418L298.245,235.43L297.73,235.455L297.217,235.482L296.704,235.511L296.191,235.541L295.679,235.573L295.168,235.606L294.656,235.641L294.146,235.677L293.635,235.715L293.126,235.755L292.616,235.796L292.107,235.839L291.599,235.883L291.091,235.929L290.583,235.977L290.076,236.026L289.57,236.077L289.063,236.129L288.558,236.183L288.052,236.238L287.548,236.295L287.043,236.354L286.54,236.414L286.036,236.476L285.534,236.539L285.031,236.603L284.529,236.67L284.028,236.738L283.527,236.807L283.027,236.878L282.527,236.95L282.027,237.024L281.529,237.1L281.03,237.177L280.532,237.255L280.035,237.336L279.538,237.417L279.042,237.5L278.546,237.585L278.051,237.671L277.556,237.759L277.062,237.848L276.568,237.939L276.075,238.031L275.582,238.125L275.09,238.22L274.598,238.316L274.107,238.415L273.617,238.514L273.127,238.616L272.637,238.718L272.148,238.822L271.66,238.928L271.172,239.035L270.685,239.144L270.198,239.254L269.712,239.365L269.226,239.478L268.741,239.593L268.257,239.709L267.773,239.826L267.29,239.945L266.807,240.065L266.325,240.187L265.843,240.31L265.362,240.435L264.882,240.561L264.402,240.689L263.923,240.818L263.444,240.948L262.966,241.08L262.489,241.213L262.012,241.348L261.536,241.484L261.06,241.622L260.585,241.761L260.11,241.901L259.637,242.043L259.163,242.187L258.691,242.331L258.219,242.477L257.747,242.625L257.277,242.774L256.807,242.924L256.337,243.076L255.868,243.229L255.4,243.384L254.932,243.54L254.465,243.697L253.999,243.856L253.533,244.016L253.068,244.178L252.604,244.34L252.14,244.505L251.677,244.67L251.214,244.837L250.753,245.006L250.292,245.176L249.831,245.347L249.371,245.519L248.912,245.693L248.454,245.868L247.996,246.045L247.539,246.223L247.082,246.402L246.626,246.583L246.171,246.765L245.717,246.948L245.263,247.133L244.81,247.319L244.358,247.507L243.906,247.695L243.455,247.885L243.005,248.077L242.555,248.27L242.106,248.464L241.658,248.659L241.211,248.856L240.764,249.054L240.318,249.253L239.873,249.454L239.428,249.656L238.984,249.859L238.541,250.064L238.099,250.269L237.657,250.477L237.216,250.685L236.776,250.895L236.336,251.106L235.897,251.318L235.459,251.532L235.022,251.747L234.585,251.963L234.15,252.181L233.715,252.4L233.28,252.62L232.847,252.841L232.414,253.064L231.982,253.288L231.551,253.513L231.12,253.739L230.69,253.967L230.261,254.196L229.833,254.426L229.406,254.658L228.979,254.89L228.553,255.124L228.128,255.36L227.704,255.596L227.28,255.834L226.857,256.073L226.435,256.313L226.014,256.554L225.594,256.797L225.174,257.041L224.756,257.286L224.338,257.533L223.92,257.78L223.504,258.029L223.089,258.279L222.674,258.53L222.26,258.783L221.847,259.036L221.435,259.291L221.023,259.547L220.613,259.805L220.203,260.063L219.794,260.323L219.386,260.584L218.978,260.846L218.572,261.109L218.166,261.373L217.762,261.639L217.358,261.906L216.955,262.174L216.552,262.443L216.151,262.714L215.75,262.985L215.351,263.258L214.952,263.532L214.554,263.807L214.157,264.083L213.761,264.36L213.366,264.639L212.971,264.919L212.578,265.2L212.185,265.482L211.793,265.765L211.402,266.049L211.012,266.334L210.623,266.621L210.235,266.909L209.847,267.198L209.461,267.488L209.075,267.779L208.691,268.071L208.307,268.365L207.924,268.659L207.542,268.955L207.161,269.251L206.781,269.549L206.401,269.848L206.023,270.148L205.646,270.45L205.269,270.752L204.894,271.055L204.519,271.36L204.146,271.666L203.773,271.972L203.401,272.28L203.03,272.589L202.66,272.899L202.291,273.21L201.923,273.522L201.556,273.836L201.19,274.15L200.825,274.465L200.46,274.782L200.097,275.1L199.735,275.418L199.374,275.738L199.013,276.059L198.654,276.381L198.295,276.703L197.938,277.027L197.581,277.352L197.226,277.678L196.871,278.006L196.518,278.334L196.165,278.663L195.814,278.993L195.463,279.325L195.113,279.657L194.765,279.99L194.417,280.325L194.071,280.66L193.725,280.997L193.38,281.334L193.037,281.673L192.694,282.012L192.353,282.353L192.012,282.694L191.673,283.037L191.334,283.38L190.997,283.725L190.66,284.071L190.325,284.417L189.99,284.765L189.657,285.113L189.325,285.463L188.993,285.814L188.663,286.165L188.334,286.518L188.006,286.871L187.678,287.226L187.352,287.581L187.027,287.938L186.703,288.295L186.381,288.654L186.059,289.013L185.738,289.374L185.418,289.735L185.1,290.097L184.782,290.46L184.465,290.825L184.15,291.19L183.836,291.556L183.522,291.923L183.21,292.291L182.899,292.66L182.589,293.03L182.28,293.401L181.972,293.773L181.666,294.145L181.36,294.519L181.055,294.894L180.752,295.269L180.45,295.646L180.148,296.023L179.848,296.401L179.549,296.781L179.251,297.161L178.955,297.542L178.659,297.924L178.364,298.307L178.071,298.69L177.779,299.075L177.488,299.461L177.198,299.847L176.909,300.235L176.621,300.623L176.334,301.012L176.049,301.402L175.765,301.793L175.482,302.185L175.2,302.578L174.919,302.971L174.639,303.366L174.36,303.761L174.083,304.157L173.807,304.554L173.532,304.952L173.258,305.351L172.985,305.751L172.714,306.151L172.443,306.552L172.174,306.955L171.906,307.358L171.639,307.762L171.374,308.166L171.109,308.572L170.846,308.978L170.584,309.386L170.323,309.794L170.063,310.203L169.805,310.613L169.547,311.023L169.291,311.435L169.036,311.847L168.783,312.26L168.53,312.674L168.279,313.089L168.029,313.504L167.78,313.92L167.533,314.338L167.286,314.756L167.041,315.174L166.797,315.594L166.554,316.014L166.313,316.435L166.073,316.857L165.834,317.28L165.596,317.704L165.36,318.128L165.124,318.553L164.89,318.979L164.658,319.406L164.426,319.833L164.196,320.261L163.967,320.69L163.739,321.12L163.513,321.55L163.288,321.982L163.064,322.414L162.841,322.847L162.62,323.28L162.4,323.715L162.181,324.15L161.963,324.585L161.747,325.022L161.532,325.459L161.318,325.897L161.106,326.336L160.895,326.776L160.685,327.216L160.477,327.657L160.269,328.099L160.064,328.541L159.859,328.984L159.656,329.428L159.454,329.873L159.253,330.318L159.054,330.764L158.856,331.211L158.659,331.658L158.464,332.106L158.27,332.555L158.077,333.005L157.885,333.455L157.695,333.906L157.507,334.358L157.319,334.81L157.133,335.263L156.948,335.717L156.765,336.171L156.583,336.626L156.402,337.082L156.223,337.539L156.045,337.996L155.868,338.454L155.693,338.912L155.519,339.371L155.347,339.831L155.176,340.292L155.006,340.753L154.837,341.214L154.67,341.677L154.505,342.14L154.34,342.604L154.178,343.068L154.016,343.533L153.856,343.999L153.697,344.465L153.54,344.932L153.384,345.4L153.229,345.868L153.076,346.337L152.924,346.807L152.774,347.277L152.625,347.747L152.477,348.219L152.331,348.691L152.187,349.163L152.043,349.637L151.901,350.11L151.761,350.585L151.622,351.06L151.484,351.536L151.348,352.012L151.213,352.489L151.08,352.966L150.948,353.444L150.818,353.923L150.689,354.402L150.561,354.882L150.435,355.362L150.31,355.843L150.187,356.325L150.065,356.807L149.945,357.29L149.826,357.773L149.709,358.257L149.593,358.741L149.478,359.226L149.365,359.712L149.254,360.198L149.144,360.685L149.035,361.172L148.928,361.66L148.822,362.148L148.718,362.637L148.616,363.127L148.514,363.617L148.415,364.107L148.316,364.598L148.22,365.09L148.125,365.582L148.031,366.075L147.939,366.568L147.848,367.062L147.759,367.556L147.671,368.051L147.585,368.546L147.5,369.042L147.417,369.538L147.336,370.035L147.255,370.532L147.177,371.03L147.1,371.529L147.024,372.027L146.95,372.527L146.878,373.027L146.807,373.527L146.738,374.028L146.67,374.529L146.603,375.031L146.539,375.534L146.476,376.036L146.414,376.54L146.354,377.043L146.295,377.548L146.238,378.052L146.183,378.558L146.129,379.063L146.077,379.57L146.026,380.076L145.977,380.583L145.929,381.091L145.883,381.599L145.839,382.107L145.796,382.616L145.755,383.126L145.715,383.635L145.677,384.146L145.641,384.656L145.606,385.168L145.573,385.679L145.541,386.191L145.511,386.704L145.482,387.217L145.455,387.73L145.43,388.245L145.418,388.501L145.406,388.758L145.395,389.015L145.384,389.273L145.374,389.53L145.364,389.788L145.354,390.045L145.345,390.303L145.336,390.561L145.328,390.819L145.32,391.077L145.312,391.335L145.305,391.594L145.299,391.852L145.292,392.11L145.286,392.369L145.281,392.628L145.276,392.886L145.271,393.145L145.267,393.404L145.263,393.664L145.259,393.923L145.256,394.182L145.253,394.441L145.251,394.701L145.249,394.96L145.248,395.22L145.247,395.48L145.246,395.74L145.246,396L145.246,396.26L145.247,396.52L145.248,396.78L145.249,397.039L145.251,397.299L145.253,397.559L145.256,397.818L145.259,398.077L145.263,398.336L145.267,398.596L145.271,398.855L145.276,399.113L145.281,399.372L145.286,399.631L145.292,399.89L145.299,400.148L145.305,400.407L145.312,400.665L145.32,400.923L145.328,401.181L145.336,401.439L145.345,401.697L145.354,401.955L145.364,402.212L145.374,402.47L145.384,402.727L145.395,402.985L145.406,403.242L145.418,403.499L145.43,403.755L145.455,404.27L145.482,404.783L145.511,405.296L145.541,405.809L145.573,406.321L145.606,406.832L145.641,407.344L145.677,407.854L145.715,408.365L145.755,408.874L145.796,409.384L145.839,409.893L145.883,410.401L145.929,410.909L145.977,411.417L146.026,411.924L146.077,412.43L146.129,412.937L146.183,413.442L146.238,413.948L146.295,414.452L146.354,414.957L146.414,415.46L146.476,415.964L146.539,416.466L146.603,416.969L146.67,417.471L146.738,417.972L146.807,418.473L146.878,418.973L146.95,419.473L147.024,419.973L147.1,420.471L147.177,420.97L147.255,421.468L147.336,421.965L147.417,422.462L147.5,422.958L147.585,423.454L147.671,423.949L147.759,424.444L147.848,424.938L147.939,425.432L148.031,425.925L148.125,426.418L148.22,426.91L148.316,427.402L148.415,427.893L148.514,428.383L148.616,428.873L148.718,429.363L148.822,429.852L148.928,430.34L149.035,430.828L149.144,431.315L149.254,431.802L149.365,432.288L149.478,432.774L149.593,433.259L149.709,433.743L149.826,434.227L149.945,434.71L150.065,435.193L150.187,435.675L150.31,436.157L150.435,436.638L150.561,437.118L150.689,437.598L150.818,438.077L150.948,438.556L151.08,439.034L151.213,439.511L151.348,439.988L151.484,440.464L151.622,440.94L151.761,441.415L151.901,441.89L152.043,442.363L152.187,442.837L152.331,443.309L152.477,443.781L152.625,444.253L152.774,444.723L152.924,445.193L153.076,445.663L153.229,446.132L153.384,446.6L153.54,447.068L153.697,447.535L153.856,448.001L154.016,448.467L154.178,448.932L154.34,449.396L154.505,449.86L154.67,450.323L154.837,450.786L155.006,451.247L155.176,451.708L155.347,452.169L155.519,452.629L155.693,453.088L155.868,453.546L156.045,454.004L156.223,454.461L156.402,454.918L156.583,455.374L156.765,455.829L156.948,456.283L157.133,456.737L157.319,457.19L157.507,457.642L157.695,458.094L157.885,458.545L158.077,458.995L158.27,459.445L158.464,459.894L158.659,460.342L158.856,460.789L159.054,461.236L159.253,461.682L159.454,462.127L159.656,462.572L159.859,463.016L160.064,463.459L160.269,463.901L160.477,464.343L160.685,464.784L160.895,465.224L161.106,465.664L161.318,466.103L161.532,466.541L161.747,466.978L161.963,467.415L162.181,467.85L162.4,468.285L162.62,468.72L162.841,469.153L163.064,469.586L163.288,470.018L163.513,470.45L163.739,470.88L163.967,471.31L164.196,471.739L164.426,472.167L164.658,472.594L164.89,473.021L165.124,473.447L165.36,473.872L165.596,474.296L165.834,474.72L166.073,475.143L166.313,475.565L166.554,475.986L166.797,476.406L167.041,476.826L167.286,477.244L167.533,477.662L167.78,478.08L168.029,478.496L168.279,478.911L168.53,479.326L168.783,479.74L169.036,480.153L169.291,480.565L169.547,480.977L169.805,481.387L170.063,481.797L170.323,482.206L170.584,482.614L170.846,483.022L171.109,483.428L171.373,483.834L171.639,484.238L171.906,484.642L172.174,485.045L172.443,485.448L172.714,485.849L172.985,486.249L173.258,486.649L173.532,487.048L173.807,487.446L174.083,487.843L174.36,488.239L174.639,488.634L174.919,489.029L175.2,489.422L175.482,489.815L175.765,490.207L176.049,490.598L176.334,490.988L176.621,491.377L176.909,491.765L177.198,492.153L177.488,492.539L177.779,492.925L178.071,493.309L178.364,493.693L178.659,494.076L178.955,494.458L179.251,494.839L179.549,495.219L179.848,495.599L180.148,495.977L180.45,496.354L180.752,496.731L181.055,497.106L181.36,497.481L181.666,497.855L181.972,498.227L182.28,498.599L182.589,498.97L182.899,499.34L183.21,499.709L183.522,500.077L183.836,500.444L184.15,500.81L184.465,501.175L184.782,501.54L185.1,501.903L185.418,502.265L185.738,502.626L186.059,502.987L186.381,503.346L186.703,503.705L187.027,504.062L187.352,504.419L187.678,504.774L188.006,505.129L188.334,505.482L188.663,505.835L188.993,506.186L189.325,506.537L189.657,506.887L189.99,507.235L190.325,507.583L190.66,507.929L190.997,508.275L191.334,508.62L191.673,508.963L192.012,509.306L192.353,509.647L192.694,509.988L193.037,510.327L193.38,510.666L193.725,511.003L194.071,511.34L194.417,511.675L194.765,512.01L195.113,512.343L195.463,512.675L195.814,513.007L196.165,513.337L196.518,513.666L196.871,513.994L197.226,514.322L197.581,514.648L197.938,514.973L198.295,515.297L198.654,515.619L199.013,515.941L199.374,516.262L199.735,516.582L200.097,516.9L200.46,517.218L200.825,517.535L201.19,517.85L201.556,518.164L201.923,518.478L202.291,518.79L202.66,519.101L203.03,519.411L203.401,519.72L203.773,520.028L204.145,520.334L204.519,520.64L204.894,520.945L205.269,521.248L205.646,521.55L206.023,521.852L206.401,522.152L206.781,522.451L207.161,522.749L207.542,523.045L207.924,523.341L208.307,523.635L208.691,523.929L209.075,524.221L209.461,524.512L209.847,524.802L210.235,525.091L210.623,525.379L211.012,525.665L211.402,525.951L211.793,526.235L212.185,526.518L212.577,526.8L212.971,527.081L213.366,527.361L213.761,527.64L214.157,527.917L214.554,528.193L214.952,528.468L215.351,528.742L215.751,529.015L216.151,529.286L216.552,529.557L216.955,529.826L217.358,530.094L217.762,530.361L218.166,530.626L218.572,530.891L218.978,531.154L219.386,531.416L219.794,531.677L220.203,531.937L220.613,532.195L221.023,532.453L221.435,532.709L221.847,532.964L222.26,533.217L222.674,533.47L223.089,533.721L223.504,533.971L223.921,534.22L224.338,534.467L224.756,534.714L225.174,534.959L225.594,535.203L226.014,535.446L226.435,535.687L226.857,535.927L227.28,536.166L227.704,536.404L228.128,536.64L228.553,536.876L228.979,537.11L229.406,537.342L229.833,537.574L230.261,537.804L230.69,538.033L231.12,538.261L231.551,538.487L231.982,538.712L232.414,538.936L232.847,539.159L233.28,539.38L233.715,539.6L234.15,539.819L234.585,540.037L235.022,540.253L235.459,540.468L235.897,540.682L236.336,540.894L236.776,541.105L237.216,541.315L237.657,541.523L238.099,541.731L238.541,541.937L238.984,542.141L239.428,542.344L239.873,542.546L240.318,542.747L240.764,542.946L241.211,543.144L241.658,543.341L242.106,543.536L242.555,543.73L243.005,543.923L243.455,544.115L243.906,544.305L244.358,544.493L244.81,544.681L245.263,544.867L245.717,545.052L246.171,545.235L246.626,545.417L247.082,545.598L247.539,545.777L247.996,545.955L248.454,546.132L248.912,546.307L249.371,546.481L249.831,546.653L250.292,546.824L250.753,546.994L251.214,547.163L251.677,547.33L252.14,547.495L252.604,547.66L253.068,547.822L253.533,547.984L253.999,548.144L254.465,548.303L254.932,548.46L255.4,548.616L255.868,548.771L256.337,548.924L256.807,549.076L257.277,549.226L257.747,549.375L258.219,549.523L258.691,549.669L259.163,549.813L259.637,549.957L260.11,550.099L260.585,550.239L261.06,550.378L261.536,550.516L262.012,550.652L262.489,550.787L262.966,550.92L263.444,551.052L263.923,551.182L264.402,551.311L264.882,551.439L265.362,551.565L265.843,551.69L266.325,551.813L266.807,551.935L267.29,552.055L267.773,552.174L268.257,552.291L268.741,552.407L269.226,552.522L269.712,552.635L270.198,552.746L270.685,552.856L271.172,552.965L271.66,553.072L272.148,553.178L272.637,553.282L273.127,553.384L273.617,553.486L274.107,553.585L274.598,553.684L275.09,553.78L275.582,553.875L276.075,553.969L276.568,554.061L277.062,554.152L277.556,554.241L278.051,554.329L278.546,554.415L279.042,554.5L279.538,554.583L280.035,554.664L280.532,554.745L281.03,554.823L281.529,554.9L282.027,554.976L282.527,555.05L283.027,555.122L283.527,555.193L284.028,555.262L284.529,555.33L285.031,555.397L285.533,555.461L286.036,555.524L286.54,555.586L287.043,555.646L287.548,555.705L288.053,555.762L288.558,555.817L289.063,555.871L289.57,555.923L290.076,555.974L290.583,556.023L291.091,556.071L291.599,556.117L292.107,556.161L292.616,556.204L293.126,556.245L293.635,556.285L294.146,556.323L294.656,556.359L295.168,556.394L295.679,556.427L296.191,556.459L296.704,556.489L297.217,556.518L297.73,556.545L298.245,556.57L298.501,556.582L298.758,556.593L299.015,556.605L299.272,556.616L299.53,556.626L299.788,556.636L300.045,556.646L300.303,556.655L300.561,556.664L300.819,556.672L301.077,556.68L301.335,556.687L301.593,556.695L301.852,556.701L302.11,556.708L302.369,556.714L302.628,556.719L302.886,556.724L303.145,556.729L303.404,556.733L303.664,556.737L303.923,556.741L304.182,556.744L304.441,556.747L304.701,556.749L304.961,556.751L305.22,556.752L305.48,556.753L305.74,556.754L306,556.754L306.26,556.754L306.52,556.753L306.78,556.752L307.039,556.751L307.299,556.749L307.559,556.747L307.818,556.744L308.077,556.741L308.336,556.737L308.596,556.733L308.855,556.729L309.113,556.724L309.372,556.719L309.631,556.714L309.89,556.708L310.148,556.701L310.407,556.695L310.665,556.687L310.923,556.68L311.181,556.672L311.439,556.664L311.697,556.655L311.955,556.646L312.212,556.636L312.47,556.626L312.728,556.616L312.985,556.605L313.242,556.593L313.499,556.582L313.755,556.57L314.27,556.545L314.783,556.518L315.296,556.489L315.809,556.459L316.321,556.427L316.832,556.394L317.344,556.359L317.854,556.323L318.365,556.285L318.874,556.245L319.384,556.204L319.893,556.161L320.401,556.117L320.909,556.071L321.417,556.023L321.924,555.974L322.43,555.923L322.937,555.871L323.442,555.817L323.947,555.762L324.452,555.705L324.957,555.646L325.46,555.586L325.964,555.524L326.467,555.461L326.969,555.397L327.471,555.33L327.972,555.262L328.473,555.193L328.973,555.122L329.473,555.05L329.973,554.976L330.471,554.9L330.97,554.823L331.468,554.745L331.965,554.664L332.462,554.583L332.958,554.5L333.454,554.415L333.949,554.329L334.444,554.241L334.939,554.152L335.432,554.061L335.925,553.969L336.418,553.875L336.91,553.78L337.402,553.684L337.893,553.585L338.383,553.486L338.873,553.384L339.363,553.282L339.852,553.178L340.34,553.072L340.828,552.965L341.315,552.856L341.802,552.746L342.288,552.635L342.774,552.522L343.259,552.407L343.743,552.291L344.227,552.174L344.71,552.055L345.193,551.935L345.675,551.813L346.157,551.69L346.638,551.565L347.118,551.439L347.598,551.311L348.077,551.182L348.556,551.052L349.034,550.92L349.511,550.787L349.988,550.652L350.464,550.516L350.94,550.378L351.415,550.239L351.889,550.099L352.363,549.957L352.837,549.813L353.309,549.669L353.781,549.523L354.253,549.375L354.723,549.226L355.193,549.076L355.663,548.924L356.132,548.771L356.6,548.616L357.068,548.46L357.535,548.303L358.001,548.144L358.467,547.984L358.932,547.822L359.396,547.66L359.86,547.495L360.323,547.33L360.785,547.163L361.247,546.994L361.708,546.824L362.169,546.653L362.629,546.481L363.088,546.307L363.546,546.132L364.004,545.955L364.461,545.777L364.918,545.598L365.374,545.417L365.829,545.235L366.283,545.052L366.737,544.867L367.19,544.681L367.642,544.493L368.094,544.305L368.545,544.115L368.995,543.923L369.445,543.73L369.894,543.536L370.342,543.341L370.789,543.144L371.236,542.946L371.682,542.747L372.127,542.546L372.572,542.344L373.016,542.141L373.459,541.937L373.901,541.731L374.343,541.523L374.784,541.315L375.224,541.105L375.664,540.894L376.103,540.682L376.541,540.468L376.978,540.253L377.415,540.037L377.85,539.819L378.285,539.6L378.72,539.38L379.153,539.159L379.586,538.936L380.018,538.712L380.45,538.487L380.88,538.261L381.31,538.033L381.739,537.804L382.167,537.574L382.594,537.342L383.021,537.11L383.447,536.876L383.872,536.64L384.296,536.404L384.72,536.166L385.143,535.927L385.565,535.687L385.986,535.446L386.406,535.203L386.826,534.959L387.244,534.714L387.662,534.467L388.079,534.22L388.496,533.971L388.911,533.721L389.326,533.47L389.74,533.217L390.153,532.964L390.565,532.709L390.977,532.453L391.387,532.195L391.797,531.937L392.206,531.677L392.614,531.416L393.022,531.154L393.428,530.891L393.834,530.626L394.238,530.361L394.642,530.094L395.045,529.826L395.448,529.557L395.849,529.286L396.249,529.015L396.649,528.742L397.048,528.468L397.446,528.193L397.843,527.917L398.239,527.64L398.634,527.361L399.029,527.081L399.423,526.8L399.815,526.518L400.207,526.235L400.598,525.951L400.988,525.665L401.377,525.379L401.765,525.091L402.153,524.802L402.539,524.512L402.925,524.221L403.309,523.929L403.693,523.635L404.076,523.341L404.458,523.045L404.839,522.749L405.219,522.451L405.599,522.152L405.977,521.852L406.354,521.55L406.731,521.248L407.106,520.945L407.481,520.64L407.855,520.334L408.227,520.028L408.599,519.72L408.97,519.411L409.34,519.101L409.709,518.79L410.077,518.478L410.444,518.164L410.81,517.85L411.175,517.535L411.539,517.218L411.903,516.9L412.265,516.582L412.626,516.262L412.987,515.941L413.346,515.619L413.705,515.297L414.062,514.973L414.419,514.648L414.774,514.322L415.129,513.994L415.482,513.666L415.835,513.337L416.186,513.007L416.537,512.675L416.887,512.343L417.235,512.01L417.583,511.675L417.929,511.34L418.275,511.003L418.62,510.666L418.963,510.327L419.306,509.988L419.647,509.647L419.988,509.306L420.327,508.963L420.666,508.62L421.004,508.275L421.34,507.929L421.675,507.583L422.01,507.235L422.343,506.887L422.675,506.537L423.007,506.186L423.337,505.835L423.666,505.482L423.994,505.129L424.322,504.774L424.648,504.419L424.973,504.062L425.297,503.705L425.619,503.346L425.941,502.987L426.262,502.626L426.582,502.265L426.9,501.903L427.218,501.54L427.535,501.175L427.85,500.81L428.164,500.444L428.478,500.077L428.79,499.709L429.101,499.34L429.411,498.97L429.72,498.599L430.028,498.227L430.334,497.855L430.64,497.481L430.945,497.106L431.248,496.731L431.55,496.354L431.852,495.977L432.152,495.599L432.451,495.219L432.749,494.839L433.045,494.458L433.341,494.076L433.635,493.693L433.929,493.309L434.221,492.925L434.512,492.539L434.802,492.153L435.091,491.765L435.379,491.377L435.666,490.988L435.951,490.598L436.235,490.207L436.518,489.815L436.8,489.422L437.081,489.029L437.361,488.634L437.64,488.239L437.917,487.843L438.193,487.446L438.468,487.048L438.742,486.649L439.015,486.249L439.286,485.849L439.557,485.448L439.826,485.045L440.094,484.642L440.361,484.238L440.627,483.834L440.891,483.428L441.154,483.022L441.416,482.614L441.677,482.206L441.937,481.797L442.195,481.387L442.453,480.977L442.709,480.565L442.964,480.153L443.217,479.74L443.47,479.326L443.721,478.911L443.971,478.496L444.22,478.08L444.468,477.662L444.714,477.244L444.959,476.826L445.203,476.406L445.446,475.986L445.687,475.565L445.927,475.143L446.166,474.72L446.404,474.296L446.64,473.872L446.876,473.447L447.11,473.021L447.342,472.594L447.574,472.167L447.804,471.739L448.033,471.31L448.261,470.88L448.487,470.45L448.712,470.018L448.936,469.586L449.159,469.153L449.38,468.72L449.6,468.285L449.819,467.85L450.037,467.415L450.253,466.978L450.468,466.541L450.682,466.103L450.894,465.664L451.105,465.224L451.315,464.784L451.523,464.343L451.731,463.901L451.937,463.459L452.141,463.016L452.344,462.572L452.546,462.127L452.747,461.682L452.946,461.236L453.144,460.789L453.341,460.342L453.536,459.894L453.73,459.445L453.923,458.995L454.115,458.545L454.305,458.094L454.493,457.642L454.681,457.19L454.867,456.737L455.052,456.283L455.235,455.829L455.417,455.374L455.598,454.918L455.777,454.461L455.955,454.004L456.132,453.546L456.307,453.088L456.481,452.629L456.653,452.169L456.824,451.708L456.994,451.247L457.163,450.785L457.33,450.323L457.495,449.86L457.66,449.396L457.822,448.932L457.984,448.467L458.144,448.001L458.303,447.535L458.46,447.068L458.616,446.6L458.771,446.132L458.924,445.663L459.076,445.193L459.226,444.723L459.375,444.252L459.523,443.781L459.669,443.309L459.813,442.837L459.957,442.363L460.099,441.89L460.239,441.415L460.378,440.94L460.516,440.464L460.652,439.988L460.787,439.511L460.92,439.034L461.052,438.556L461.182,438.077L461.311,437.598L461.439,437.118L461.565,436.638L461.69,436.157L461.813,435.675L461.935,435.193L462.055,434.71L462.174,434.227L462.291,433.743L462.407,433.259L462.522,432.774L462.635,432.288L462.746,431.802L462.856,431.315L462.965,430.828L463.072,430.34L463.178,429.852L463.282,429.363L463.384,428.873L463.486,428.383L463.585,427.893L463.684,427.402L463.78,426.91L463.875,426.418L463.969,425.925L464.061,425.432L464.152,424.938L464.241,424.444L464.329,423.949L464.415,423.454L464.5,422.958L464.583,422.462L464.664,421.965L464.745,421.468L464.823,420.97L464.9,420.471L464.976,419.973L465.05,419.473L465.122,418.973L465.193,418.473L465.262,417.972L465.33,417.471L465.397,416.969L465.461,416.467L465.524,415.964L465.586,415.46L465.646,414.957L465.705,414.452L465.762,413.948L465.817,413.442L465.871,412.937L465.923,412.43L465.974,411.924L466.023,411.417L466.071,410.909L466.117,410.401L466.161,409.893L466.204,409.384L466.245,408.874L466.285,408.365L466.323,407.854L466.359,407.344L466.394,406.832L466.427,406.321L466.459,405.809L466.489,405.296L466.518,404.783L466.545,404.27L466.57,403.755L466.582,403.499L466.594,403.242L466.605,402.985L466.616,402.727L466.626,402.47L466.636,402.212L466.646,401.955L466.655,401.697L466.664,401.439L466.672,401.181L466.68,400.923L466.688,400.665L466.695,400.407L466.701,400.148L466.708,399.89L466.714,399.631L466.719,399.372L466.724,399.113L466.729,398.855L466.733,398.595L466.737,398.336L466.741,398.077L466.744,397.818L466.747,397.559L466.749,397.299L466.751,397.039L466.752,396.78L466.753,396.52L466.754,396.26L466.754,396L466.754,395.74L466.753,395.48L466.752,395.22L466.751,394.96L466.749,394.701L466.747,394.441L466.744,394.182L466.741,393.923L466.737,393.664L466.733,393.404L466.729,393.145L466.724,392.886L466.719,392.628L466.714,392.369L466.708,392.11L466.701,391.852L466.695,391.594L466.688,391.335L466.68,391.077L466.672,390.819L466.664,390.561L466.655,390.303L466.646,390.045L466.636,389.788L466.626,389.53L466.616,389.273L466.605,389.015L466.594,388.758L466.582,388.501L466.57,388.245L466.545,387.73L466.518,387.217L466.489,386.704L466.459,386.191L466.427,385.679L466.394,385.168L466.359,384.656L466.323,384.146L466.285,383.635L466.245,383.126L466.204,382.616L466.161,382.107L466.117,381.599L466.071,381.091L466.023,380.583L465.974,380.076L465.923,379.57L465.871,379.063L465.817,378.558L465.762,378.052L465.705,377.548L465.646,377.043L465.586,376.54L465.524,376.036L465.461,375.534L465.397,375.031L465.33,374.529L465.262,374.028L465.193,373.527L465.122,373.027L465.05,372.527L464.976,372.027L464.9,371.529L464.823,371.03L464.745,370.532L464.664,370.035L464.583,369.538L464.5,369.042L464.415,368.546L464.329,368.051L464.241,367.556L464.152,367.062L464.061,366.568L463.969,366.075L463.875,365.582L463.78,365.09L463.684,364.598L463.585,364.107L463.486,363.617L463.384,363.127L463.282,362.637L463.178,362.148L463.072,361.66L462.965,361.172L462.856,360.685L462.746,360.198L462.635,359.712L462.522,359.226L462.407,358.741L462.291,358.257L462.174,357.773L462.055,357.29L461.935,356.807L461.813,356.325L461.69,355.843L461.565,355.362L461.439,354.882L461.311,354.402L461.182,353.923L461.052,353.444L460.92,352.966L460.787,352.489L460.652,352.012L460.516,351.536L460.378,351.06L460.239,350.585L460.099,350.11L459.957,349.637L459.813,349.163L459.669,348.691L459.523,348.219L459.375,347.747L459.226,347.277L459.076,346.807L458.924,346.337L458.771,345.868L458.616,345.4L458.46,344.932L458.303,344.465L458.144,343.999L457.984,343.533L457.822,343.068L457.66,342.604L457.495,342.14L457.33,341.677L457.163,341.215L456.994,340.753L456.824,340.292L456.653,339.831L456.481,339.371L456.307,338.912L456.132,338.454L455.955,337.996L455.777,337.539L455.598,337.082L455.417,336.626L455.235,336.171L455.052,335.717L454.867,335.263L454.681,334.81L454.493,334.358L454.305,333.906L454.115,333.455L453.923,333.005L453.73,332.555L453.536,332.106L453.341,331.658L453.144,331.211L452.946,330.764L452.747,330.318L452.546,329.873L452.344,329.428L452.141,328.984L451.937,328.541L451.731,328.099L451.523,327.657L451.315,327.216L451.105,326.776L450.894,326.336L450.682,325.897L450.468,325.459L450.253,325.022L450.037,324.585L449.819,324.15L449.6,323.715L449.38,323.28L449.159,322.847L448.936,322.414L448.712,321.982L448.487,321.55L448.261,321.12L448.033,320.69L447.804,320.261L447.574,319.833L447.342,319.406L447.11,318.979L446.876,318.553L446.64,318.128L446.404,317.704L446.166,317.28L445.927,316.857L445.687,316.435L445.446,316.014L445.203,315.594L444.959,315.174L444.714,314.756L444.468,314.338L444.22,313.92L443.971,313.504L443.721,313.089L443.47,312.674L443.217,312.26L442.964,311.847L442.709,311.435L442.453,311.023L442.195,310.613L441.937,310.203L441.677,309.794L441.416,309.386L441.154,308.978L440.891,308.572L440.627,308.166L440.361,307.762L440.094,307.358L439.826,306.955L439.557,306.552L439.286,306.151L439.015,305.751L438.742,305.351L438.468,304.952L438.193,304.554L437.917,304.157L437.64,303.761L437.361,303.365L437.081,302.971L436.8,302.578L436.519,302.185L436.235,301.793L435.951,301.402L435.665,301.012L435.379,300.623L435.091,300.235L434.802,299.847L434.512,299.461L434.221,299.075L433.929,298.69L433.635,298.307L433.341,297.924L433.045,297.542L432.749,297.161L432.451,296.781L432.152,296.401L431.852,296.023L431.55,295.646L431.248,295.269L430.945,294.894L430.64,294.519L430.334,294.145L430.028,293.773L429.72,293.401L429.411,293.03L429.101,292.66L428.79,292.291L428.478,291.923L428.164,291.556L427.85,291.19L427.535,290.825L427.218,290.46L426.9,290.097L426.582,289.735L426.262,289.374L425.941,289.013L425.619,288.654L425.297,288.295L424.973,287.938L424.648,287.581L424.322,287.226L423.994,286.871L423.666,286.518L423.337,286.165L423.007,285.814L422.675,285.463L422.343,285.113L422.01,284.765L421.675,284.417L421.34,284.071L421.003,283.725L420.666,283.38L420.327,283.037L419.988,282.694L419.647,282.353L419.306,282.012L418.963,281.673L418.62,281.334L418.275,280.996L417.929,280.66L417.583,280.325L417.235,279.99L416.887,279.657L416.537,279.325L416.186,278.993L415.835,278.663L415.482,278.334L415.129,278.006L414.774,277.679L414.419,277.352L414.062,277.027L413.705,276.703L413.346,276.381L412.987,276.059L412.626,275.738L412.265,275.418L411.903,275.1L411.539,274.782L411.175,274.465L410.81,274.15L410.444,273.836L410.077,273.522L409.709,273.21L409.34,272.899L408.97,272.589L408.599,272.28L408.227,271.972L407.855,271.666L407.481,271.36L407.106,271.055L406.731,270.752L406.354,270.45L405.977,270.148L405.599,269.848L405.219,269.549L404.839,269.251L404.458,268.955L404.076,268.659L403.693,268.365L403.309,268.071L402.925,267.779L402.539,267.488L402.153,267.198L401.765,266.909L401.377,266.621L400.988,266.335L400.598,266.049L400.207,265.765L399.815,265.482L399.422,265.2L399.029,264.919L398.634,264.639L398.239,264.36L397.843,264.083L397.446,263.807L397.048,263.532L396.649,263.258L396.25,262.985L395.849,262.714L395.448,262.443L395.045,262.174L394.642,261.906L394.238,261.639L393.834,261.373L393.428,261.109L393.022,260.846L392.614,260.584L392.206,260.323L391.797,260.063L391.387,259.805L390.977,259.547L390.565,259.291L390.153,259.036L389.74,258.783L389.326,258.53L388.911,258.279L388.496,258.029L388.08,257.78L387.662,257.533L387.244,257.286L386.826,257.041L386.406,256.797L385.986,256.554L385.565,256.313L385.143,256.073L384.72,255.834L384.296,255.596L383.872,255.36L383.447,255.124L383.021,254.89L382.594,254.658L382.167,254.426L381.739,254.196L381.31,253.967L380.88,253.739L380.449,253.513L380.018,253.288L379.586,253.064L379.153,252.841L378.72,252.62L378.286,252.4L377.85,252.181L377.415,251.963L376.978,251.747L376.541,251.532L376.103,251.318L375.664,251.106L375.224,250.895L374.784,250.685L374.343,250.477L373.901,250.269L373.459,250.064L373.016,249.859L372.572,249.656L372.127,249.454L371.682,249.253L371.236,249.054L370.789,248.856L370.342,248.659L369.894,248.464L369.445,248.27L368.995,248.077L368.545,247.885L368.094,247.695L367.642,247.507L367.19,247.319L366.737,247.133L366.283,246.948L365.829,246.765L365.374,246.583L364.918,246.402L364.461,246.223L364.004,246.045L363.546,245.868L363.088,245.693L362.629,245.519L362.169,245.347L361.708,245.176L361.247,245.006L360.785,244.837L360.323,244.67L359.86,244.505L359.396,244.34L358.932,244.178L358.467,244.016L358.001,243.856L357.535,243.697L357.068,243.54L356.6,243.384L356.132,243.229L355.663,243.076L355.193,242.924L354.723,242.774L354.253,242.625L353.781,242.477L353.309,242.331L352.837,242.187L352.363,242.043L351.89,241.901L351.415,241.761L350.94,241.622L350.464,241.484L349.988,241.348L349.511,241.213L349.034,241.08L348.556,240.948L348.077,240.818L347.598,240.689L347.118,240.561L346.638,240.435L346.157,240.31L345.675,240.187L345.193,240.065L344.71,239.945L344.227,239.826L343.743,239.709L343.259,239.593L342.774,239.478L342.288,239.365L341.802,239.254L341.315,239.144L340.828,239.035L340.34,238.928L339.852,238.822L339.363,238.718L338.873,238.616L338.383,238.514L337.893,238.415L337.402,238.316L336.91,238.22L336.418,238.125L335.925,238.031L335.432,237.939L334.938,237.848L334.444,237.759L333.949,237.671L333.454,237.585L332.958,237.5L332.462,237.417L331.965,237.336L331.468,237.255L330.97,237.177L330.471,237.1L329.973,237.024L329.473,236.95L328.973,236.878L328.473,236.807L327.972,236.738L327.471,236.67L326.969,236.603L326.466,236.539L325.964,236.476L325.46,236.414L324.957,236.354L324.452,236.295L323.948,236.238L323.442,236.183L322.937,236.129L322.43,236.077L321.924,236.026L321.417,235.977L320.909,235.929L320.401,235.883L319.893,235.839L319.384,235.796L318.874,235.755L318.365,235.715L317.854,235.677L317.344,235.641L316.832,235.606L316.321,235.573L315.809,235.541L315.296,235.511L314.783,235.482L314.27,235.455L313.755,235.43L313.499,235.418L313.242,235.406L312.985,235.395L312.727,235.384L312.47,235.374L312.212,235.364L311.955,235.354L311.697,235.345L311.439,235.336L311.181,235.328L310.923,235.32L310.665,235.312L310.407,235.305L310.148,235.299L309.89,235.292L309.631,235.286L309.372,235.281L309.114,235.276L308.855,235.271L308.596,235.267L308.336,235.263L308.077,235.259L307.818,235.256L307.559,235.253L307.299,235.251L307.039,235.249L306.78,235.248L306.52,235.247L306.26,235.246L306,235.246L305.74,235.246Z" style="fill:rgb(249,237,88);"/>
    </g>
</svg>
