<?xml version="1.0" encoding="UTF-8" standalone="no"?>
<!DOCTYPE svg PUBLIC "-//W3C//DTD SVG 1.1//EN" "http://www.w3.org/Graphics/SVG/1.1/DTD/svg11.dtd">
<svg width="100%" height="100%" viewBox="0 0 59 30" version="1.1" xmlns="http://www.w3.org/2000/svg" xmlns:xlink="http://www.w3.org/1999/xlink" xml:space="preserve" style="fill-rule:evenodd;clip-rule:evenodd;stroke-linejoin:round;stroke-miterlimit:1.41421;">
    <g transform="matrix(1,0,0,1,-2.74677,-0.546692)">
        <g transform="matrix(3.05543,0,0,2.93496,-17.452,7.87724)">
            <path d="M6.611,3.845C6.611,3.519 6.71,3.193 6.907,2.867C7.105,2.541 7.366,2.223 7.692,1.912C8.018,1.601 8.389,1.309 8.804,1.038C9.218,0.766 9.641,0.526 10.07,0.319C10.5,0.112 10.92,-0.051 11.33,-0.17C11.74,-0.288 12.098,-0.348 12.404,-0.348C12.404,-0.061 12.332,0.201 12.189,0.438C12.046,0.675 11.856,0.897 11.619,1.104C11.382,1.312 11.117,1.512 10.826,1.704C10.535,1.897 10.248,2.087 9.967,2.275C9.685,2.462 9.416,2.66 9.159,2.867C8.902,3.075 8.695,3.297 8.537,3.534C8.527,3.564 8.517,3.584 8.507,3.593L8.507,3.771C8.517,3.801 8.527,3.826 8.537,3.845C8.557,3.855 8.604,3.905 8.678,3.993C8.752,4.082 8.808,4.137 8.848,4.156C8.897,4.196 9.013,4.27 9.196,4.379C9.379,4.487 9.591,4.621 9.833,4.779C10.075,4.937 10.332,5.1 10.604,5.268C10.875,5.436 11.13,5.598 11.367,5.757C11.604,5.915 11.811,6.05 11.989,6.164C12.167,6.278 12.29,6.354 12.359,6.394C12.379,6.403 12.431,6.45 12.515,6.534C12.599,6.618 12.646,6.67 12.656,6.69C12.656,6.72 12.661,6.749 12.67,6.779C12.67,6.789 12.673,6.804 12.678,6.823C12.683,6.843 12.685,6.858 12.685,6.868C12.685,6.878 12.683,6.89 12.678,6.905C12.673,6.92 12.67,6.932 12.67,6.942C12.661,6.971 12.656,6.996 12.656,7.016C12.636,7.055 12.591,7.115 12.522,7.194C12.453,7.273 12.387,7.344 12.322,7.408C12.258,7.473 12.196,7.529 12.137,7.579C12.078,7.628 12.038,7.653 12.019,7.653C11.861,7.653 11.616,7.591 11.285,7.468C10.954,7.344 10.589,7.179 10.189,6.971C9.789,6.764 9.379,6.527 8.959,6.26C8.539,5.994 8.154,5.717 7.803,5.431C7.453,5.144 7.166,4.863 6.944,4.586C6.722,4.309 6.611,4.063 6.611,3.845Z" style="fill:white;fill-rule:nonzero;"/>
            <path d="M13.567,6.483C13.586,6.413 13.618,6.29 13.663,6.112C13.707,5.934 13.752,5.744 13.796,5.542C13.841,5.339 13.883,5.152 13.922,4.979C13.962,4.806 13.991,4.685 14.011,4.616C14.08,4.339 14.184,3.956 14.322,3.467C14.46,2.979 14.631,2.455 14.833,1.897C15.036,1.339 15.268,0.776 15.53,0.208C15.791,-0.36 16.083,-0.859 16.404,-1.288C16.725,-1.718 17.073,-2.047 17.448,-2.274C17.824,-2.501 18.229,-2.555 18.663,-2.437C18.525,-1.884 18.35,-1.363 18.137,-0.874C17.925,-0.385 17.698,0.094 17.456,0.564C17.214,1.033 16.967,1.497 16.715,1.956C16.463,2.416 16.219,2.882 15.982,3.356C15.745,3.83 15.53,4.324 15.337,4.838C15.144,5.352 14.994,5.9 14.885,6.483C14.836,6.769 14.742,6.934 14.604,6.979C14.465,7.023 14.307,7.021 14.13,6.971C14.001,6.942 13.883,6.897 13.774,6.838C13.665,6.779 13.596,6.66 13.567,6.483Z" style="fill:rgb(219,48,105);fill-rule:nonzero;"/>
            <path d="M20.297,7.016C20.297,6.858 20.366,6.65 20.504,6.394C20.642,6.137 20.82,5.863 21.037,5.571C21.255,5.28 21.489,4.979 21.741,4.668C21.993,4.356 22.237,4.06 22.475,3.779C22.712,3.497 22.919,3.25 23.097,3.038C23.275,2.825 23.403,2.67 23.482,2.571C23.482,2.551 23.487,2.524 23.497,2.49C23.507,2.455 23.512,2.428 23.512,2.408C23.512,2.408 23.507,2.383 23.497,2.334C23.487,2.314 23.482,2.29 23.482,2.26C23.462,2.22 23.413,2.161 23.334,2.082C23.255,2.003 23.196,1.954 23.156,1.934C23.097,1.894 22.978,1.82 22.8,1.712C22.623,1.603 22.415,1.47 22.178,1.312C21.941,1.154 21.687,0.991 21.415,0.823C21.144,0.655 20.889,0.494 20.652,0.341C20.415,0.188 20.208,0.055 20.03,-0.059C19.852,-0.172 19.729,-0.244 19.659,-0.274C19.511,-0.372 19.41,-0.476 19.356,-0.585C19.301,-0.693 19.274,-0.837 19.274,-1.014C19.541,-1.014 19.889,-0.972 20.319,-0.888C20.748,-0.804 21.2,-0.691 21.674,-0.548C22.149,-0.404 22.628,-0.234 23.112,-0.037C23.596,0.161 24.03,0.376 24.415,0.608C24.801,0.84 25.117,1.085 25.364,1.341C25.611,1.598 25.734,1.85 25.734,2.097C25.734,2.117 25.729,2.144 25.719,2.178C25.709,2.213 25.704,2.24 25.704,2.26C25.616,2.369 25.482,2.529 25.304,2.741C25.127,2.954 24.924,3.198 24.697,3.475C24.47,3.751 24.23,4.04 23.978,4.342C23.726,4.643 23.484,4.927 23.252,5.194C23.02,5.46 22.81,5.702 22.623,5.919C22.435,6.137 22.297,6.295 22.208,6.394C22.06,6.562 21.941,6.705 21.852,6.823C21.763,6.942 21.682,7.041 21.608,7.12C21.534,7.199 21.45,7.258 21.356,7.297C21.262,7.337 21.131,7.357 20.963,7.357C20.924,7.357 20.867,7.354 20.793,7.349C20.719,7.344 20.645,7.332 20.571,7.312C20.497,7.292 20.432,7.26 20.378,7.216C20.324,7.171 20.297,7.105 20.297,7.016Z" style="fill:white;fill-rule:nonzero;"/>
        </g>
    </g>
</svg>
